%TF.GenerationSoftware,KiCad,Pcbnew,(5.1.10)-1*%
%TF.CreationDate,2022-02-10T20:54:04-03:00*%
%TF.ProjectId,sensor_v00,73656e73-6f72-45f7-9630-302e6b696361,rev?*%
%TF.SameCoordinates,Original*%
%TF.FileFunction,Copper,L1,Top*%
%TF.FilePolarity,Positive*%
%FSLAX46Y46*%
G04 Gerber Fmt 4.6, Leading zero omitted, Abs format (unit mm)*
G04 Created by KiCad (PCBNEW (5.1.10)-1) date 2022-02-10 20:54:04*
%MOMM*%
%LPD*%
G01*
G04 APERTURE LIST*
%TA.AperFunction,ComponentPad*%
%ADD10O,1.000000X1.000000*%
%TD*%
%TA.AperFunction,ComponentPad*%
%ADD11R,1.000000X1.000000*%
%TD*%
%TA.AperFunction,ComponentPad*%
%ADD12C,1.930400*%
%TD*%
%TA.AperFunction,ComponentPad*%
%ADD13O,1.700000X1.700000*%
%TD*%
%TA.AperFunction,ComponentPad*%
%ADD14R,1.700000X1.700000*%
%TD*%
%TA.AperFunction,ViaPad*%
%ADD15C,0.800000*%
%TD*%
%TA.AperFunction,Conductor*%
%ADD16C,1.000000*%
%TD*%
%TA.AperFunction,Conductor*%
%ADD17C,0.500000*%
%TD*%
G04 APERTURE END LIST*
D10*
%TO.P,LoRa,12*%
%TO.N,GNDREF*%
X121030000Y-79000000D03*
%TO.P,LoRa,11*%
%TO.N,N/C*%
X122300000Y-79000000D03*
%TO.P,LoRa,10*%
X123570000Y-79000000D03*
%TO.P,LoRa,9*%
%TO.N,SCK*%
X124840000Y-79000000D03*
%TO.P,LoRa,8*%
%TO.N,MOSI*%
X126110000Y-79000000D03*
%TO.P,LoRa,7*%
%TO.N,MISO*%
X127380000Y-79000000D03*
%TO.P,LoRa,6*%
%TO.N,NSS*%
X128650000Y-79000000D03*
%TO.P,LoRa,5*%
%TO.N,N/C*%
X129920000Y-79000000D03*
%TO.P,LoRa,4*%
X131190000Y-79000000D03*
%TO.P,LoRa,3*%
%TO.N,DIO0*%
X132460000Y-79000000D03*
%TO.P,LoRa,2*%
%TO.N,3v3*%
X133730000Y-79000000D03*
D11*
%TO.P,LoRa,1*%
%TO.N,RST*%
X135000000Y-79000000D03*
%TD*%
D12*
%TO.P,U101,EN*%
%TO.N,N/C*%
X119052840Y-94750240D03*
%TO.P,U101,D36*%
X119052840Y-97290240D03*
%TO.P,U101,D39*%
X119052840Y-99830240D03*
%TO.P,U101,D34*%
X119052840Y-102370240D03*
%TO.P,U101,D35*%
X119052840Y-104910240D03*
%TO.P,U101,D32*%
X119052840Y-107450240D03*
%TO.P,U101,D33*%
X119052840Y-109990240D03*
%TO.P,U101,D25*%
X119052840Y-112530240D03*
%TO.P,U101,D26*%
X119052840Y-115070240D03*
%TO.P,U101,D27*%
X119052840Y-117610240D03*
%TO.P,U101,D14*%
X119052840Y-120150240D03*
%TO.P,U101,D12*%
X119052840Y-122690240D03*
%TO.P,U101,D13*%
X119052840Y-125230240D03*
%TO.P,U101,GND@1*%
X119052840Y-127770240D03*
%TO.P,U101,VIN*%
X119052840Y-130310240D03*
%TO.P,U101,D23*%
%TO.N,MOSI*%
X144457840Y-94750240D03*
%TO.P,U101,D22*%
%TO.N,SCL*%
X144457840Y-97290240D03*
%TO.P,U101,D1*%
%TO.N,N/C*%
X144457840Y-99830240D03*
%TO.P,U101,D3*%
X144457840Y-102370240D03*
%TO.P,U101,D21*%
%TO.N,SDA*%
X144457840Y-104910240D03*
%TO.P,U101,D19*%
%TO.N,MISO*%
X144457840Y-107450240D03*
%TO.P,U101,D18*%
%TO.N,SCK*%
X144457840Y-109990240D03*
%TO.P,U101,D5*%
%TO.N,NSS*%
X144457840Y-112530240D03*
%TO.P,U101,D17*%
%TO.N,N/C*%
X144457840Y-115070240D03*
%TO.P,U101,D16*%
X144457840Y-117610240D03*
%TO.P,U101,D4*%
X144457840Y-120150240D03*
%TO.P,U101,D2*%
%TO.N,RST*%
X144457840Y-122690240D03*
%TO.P,U101,D15*%
%TO.N,DIO0*%
X144457840Y-125230240D03*
%TO.P,U101,GND@2*%
%TO.N,GNDREF*%
X144457840Y-127770240D03*
%TO.P,U101,3V3*%
%TO.N,3v3*%
X144457840Y-130310240D03*
%TD*%
D13*
%TO.P,TLS2561,5*%
%TO.N,N/C*%
X156462920Y-78690920D03*
%TO.P,TLS2561,4*%
%TO.N,SDA*%
X156462920Y-81230920D03*
%TO.P,TLS2561,3*%
%TO.N,SCL*%
X156462920Y-83770920D03*
%TO.P,TLS2561,2*%
%TO.N,GNDREF*%
X156462920Y-86310920D03*
D14*
%TO.P,TLS2561,1*%
%TO.N,3v3*%
X156462920Y-88850920D03*
%TD*%
D13*
%TO.P,J103,4*%
%TO.N,3v3*%
X156462920Y-115230920D03*
%TO.P,J103,3*%
%TO.N,GNDREF*%
X156462920Y-117770920D03*
%TO.P,J103,2*%
%TO.N,SCL*%
X156462920Y-120310920D03*
D14*
%TO.P,J103,1*%
%TO.N,SDA*%
X156462920Y-122850920D03*
%TD*%
D13*
%TO.P,BME680,6*%
%TO.N,3v3*%
X156462920Y-96150920D03*
%TO.P,BME680,5*%
%TO.N,GNDREF*%
X156462920Y-98690920D03*
%TO.P,BME680,4*%
%TO.N,SCL*%
X156462920Y-101230920D03*
%TO.P,BME680,3*%
%TO.N,SDA*%
X156462920Y-103770920D03*
%TO.P,BME680,2*%
%TO.N,N/C*%
X156462920Y-106310920D03*
D14*
%TO.P,BME680,1*%
X156462920Y-108850920D03*
%TD*%
D13*
%TO.P,J101,4*%
%TO.N,3v3*%
X156462920Y-136470920D03*
%TO.P,J101,3*%
%TO.N,GNDREF*%
X156462920Y-133930920D03*
%TO.P,J101,2*%
%TO.N,SCL*%
X156462920Y-131390920D03*
D14*
%TO.P,J101,1*%
%TO.N,SDA*%
X156462920Y-128850920D03*
%TD*%
D15*
%TO.N,NSS*%
X140000000Y-84000000D03*
%TO.N,MISO*%
X127380000Y-85380000D03*
%TD*%
D16*
%TO.N,SCL*%
X144457840Y-97290240D02*
X147709760Y-97290240D01*
X156462920Y-83770920D02*
X153229080Y-83770920D01*
X151000000Y-86000000D02*
X151000000Y-94000000D01*
X153229080Y-83770920D02*
X151000000Y-86000000D01*
X155230920Y-101230920D02*
X149500000Y-95500000D01*
X156462920Y-101230920D02*
X155230920Y-101230920D01*
X149500000Y-95500000D02*
X151000000Y-94000000D01*
X147709760Y-97290240D02*
X149000000Y-96000000D01*
X149000000Y-96000000D02*
X149500000Y-95500000D01*
X153310920Y-120310920D02*
X156462920Y-120310920D01*
X149000000Y-116000000D02*
X153310920Y-120310920D01*
X149000000Y-115000000D02*
X149000000Y-128000000D01*
X149000000Y-96000000D02*
X149000000Y-115000000D01*
X149000000Y-115000000D02*
X149000000Y-116000000D01*
X152390920Y-131390920D02*
X156462920Y-131390920D01*
X149000000Y-128000000D02*
X152390920Y-131390920D01*
%TO.N,3v3*%
X162529080Y-136470920D02*
X156462920Y-136470920D01*
X164000000Y-135000000D02*
X162529080Y-136470920D01*
X150618520Y-136470920D02*
X144457840Y-130310240D01*
X156462920Y-136470920D02*
X150618520Y-136470920D01*
X156462920Y-88850920D02*
X161149080Y-88850920D01*
X161149080Y-88850920D02*
X164000000Y-86000000D01*
X164000000Y-78000000D02*
X164000000Y-86000000D01*
X156462920Y-115230920D02*
X161769080Y-115230920D01*
X161769080Y-115230920D02*
X164000000Y-113000000D01*
X164000000Y-113000000D02*
X164000000Y-135000000D01*
X162849080Y-96150920D02*
X164000000Y-95000000D01*
X156462920Y-96150920D02*
X162849080Y-96150920D01*
X164000000Y-95000000D02*
X164000000Y-113000000D01*
X164000000Y-86000000D02*
X164000000Y-95000000D01*
D17*
X133730000Y-79000000D02*
X133730000Y-76270000D01*
X161000000Y-75000000D02*
X164000000Y-78000000D01*
X135000000Y-75000000D02*
X161000000Y-75000000D01*
X133730000Y-76270000D02*
X135000000Y-75000000D01*
%TO.N,NSS*%
X140000000Y-84000000D02*
X140000000Y-111000000D01*
X141530240Y-112530240D02*
X144457840Y-112530240D01*
X140000000Y-111000000D02*
X141530240Y-112530240D01*
%TO.N,DIO0*%
X132460000Y-79000000D02*
X132460000Y-115460000D01*
X142230240Y-125230240D02*
X144457840Y-125230240D01*
X132460000Y-115460000D02*
X142230240Y-125230240D01*
%TO.N,MISO*%
X127380000Y-79000000D02*
X127380000Y-85380000D01*
X127380000Y-85380000D02*
X127380000Y-85380000D01*
%TO.N,RST*%
X135000000Y-79000000D02*
X135000000Y-115000000D01*
X142690240Y-122690240D02*
X144457840Y-122690240D01*
X135000000Y-115000000D02*
X142690240Y-122690240D01*
%TD*%
M02*
