%TF.GenerationSoftware,KiCad,Pcbnew,(5.1.10)-1*%
%TF.CreationDate,2022-02-10T20:54:04-03:00*%
%TF.ProjectId,sensor_v00,73656e73-6f72-45f7-9630-302e6b696361,rev?*%
%TF.SameCoordinates,Original*%
%TF.FileFunction,Legend,Top*%
%TF.FilePolarity,Positive*%
%FSLAX46Y46*%
G04 Gerber Fmt 4.6, Leading zero omitted, Abs format (unit mm)*
G04 Created by KiCad (PCBNEW (5.1.10)-1) date 2022-02-10 20:54:04*
%MOMM*%
%LPD*%
G01*
G04 APERTURE LIST*
%ADD10C,0.200000*%
%ADD11C,0.120000*%
%ADD12C,0.254000*%
%ADD13C,0.150000*%
%ADD14C,0.050000*%
G04 APERTURE END LIST*
D10*
X105904761Y-125679238D02*
X103904761Y-125679238D01*
X105904761Y-124441142D02*
X105809523Y-124631619D01*
X105714285Y-124726857D01*
X105523809Y-124822095D01*
X104952380Y-124822095D01*
X104761904Y-124726857D01*
X104666666Y-124631619D01*
X104571428Y-124441142D01*
X104571428Y-124155428D01*
X104666666Y-123964952D01*
X104761904Y-123869714D01*
X104952380Y-123774476D01*
X105523809Y-123774476D01*
X105714285Y-123869714D01*
X105809523Y-123964952D01*
X105904761Y-124155428D01*
X105904761Y-124441142D01*
X103904761Y-123203047D02*
X103904761Y-122060190D01*
X105904761Y-122631619D02*
X103904761Y-122631619D01*
X105904761Y-118917333D02*
X105904761Y-119869714D01*
X103904761Y-119869714D01*
X105904761Y-117964952D02*
X105809523Y-118155428D01*
X105714285Y-118250666D01*
X105523809Y-118345904D01*
X104952380Y-118345904D01*
X104761904Y-118250666D01*
X104666666Y-118155428D01*
X104571428Y-117964952D01*
X104571428Y-117679238D01*
X104666666Y-117488761D01*
X104761904Y-117393523D01*
X104952380Y-117298285D01*
X105523809Y-117298285D01*
X105714285Y-117393523D01*
X105809523Y-117488761D01*
X105904761Y-117679238D01*
X105904761Y-117964952D01*
X105904761Y-115298285D02*
X104952380Y-115964952D01*
X105904761Y-116441142D02*
X103904761Y-116441142D01*
X103904761Y-115679238D01*
X104000000Y-115488761D01*
X104095238Y-115393523D01*
X104285714Y-115298285D01*
X104571428Y-115298285D01*
X104761904Y-115393523D01*
X104857142Y-115488761D01*
X104952380Y-115679238D01*
X104952380Y-116441142D01*
X105904761Y-113584000D02*
X104857142Y-113584000D01*
X104666666Y-113679238D01*
X104571428Y-113869714D01*
X104571428Y-114250666D01*
X104666666Y-114441142D01*
X105809523Y-113584000D02*
X105904761Y-113774476D01*
X105904761Y-114250666D01*
X105809523Y-114441142D01*
X105619047Y-114536380D01*
X105428571Y-114536380D01*
X105238095Y-114441142D01*
X105142857Y-114250666D01*
X105142857Y-113774476D01*
X105047619Y-113584000D01*
X105904761Y-111107809D02*
X103904761Y-111107809D01*
X103904761Y-110345904D01*
X104000000Y-110155428D01*
X104095238Y-110060190D01*
X104285714Y-109964952D01*
X104571428Y-109964952D01*
X104761904Y-110060190D01*
X104857142Y-110155428D01*
X104952380Y-110345904D01*
X104952380Y-111107809D01*
X105904761Y-108822095D02*
X105809523Y-109012571D01*
X105619047Y-109107809D01*
X103904761Y-109107809D01*
X105904761Y-107203047D02*
X104857142Y-107203047D01*
X104666666Y-107298285D01*
X104571428Y-107488761D01*
X104571428Y-107869714D01*
X104666666Y-108060190D01*
X105809523Y-107203047D02*
X105904761Y-107393523D01*
X105904761Y-107869714D01*
X105809523Y-108060190D01*
X105619047Y-108155428D01*
X105428571Y-108155428D01*
X105238095Y-108060190D01*
X105142857Y-107869714D01*
X105142857Y-107393523D01*
X105047619Y-107203047D01*
X104571428Y-106250666D02*
X105904761Y-106250666D01*
X104761904Y-106250666D02*
X104666666Y-106155428D01*
X104571428Y-105964952D01*
X104571428Y-105679238D01*
X104666666Y-105488761D01*
X104857142Y-105393523D01*
X105904761Y-105393523D01*
X104571428Y-104726857D02*
X104571428Y-103964952D01*
X103904761Y-104441142D02*
X105619047Y-104441142D01*
X105809523Y-104345904D01*
X105904761Y-104155428D01*
X105904761Y-103964952D01*
X105904761Y-101774476D02*
X103904761Y-101774476D01*
X105333333Y-101107809D01*
X103904761Y-100441142D01*
X105904761Y-100441142D01*
X105904761Y-99203047D02*
X105809523Y-99393523D01*
X105714285Y-99488761D01*
X105523809Y-99584000D01*
X104952380Y-99584000D01*
X104761904Y-99488761D01*
X104666666Y-99393523D01*
X104571428Y-99203047D01*
X104571428Y-98917333D01*
X104666666Y-98726857D01*
X104761904Y-98631619D01*
X104952380Y-98536380D01*
X105523809Y-98536380D01*
X105714285Y-98631619D01*
X105809523Y-98726857D01*
X105904761Y-98917333D01*
X105904761Y-99203047D01*
X104571428Y-97679238D02*
X105904761Y-97679238D01*
X104761904Y-97679238D02*
X104666666Y-97584000D01*
X104571428Y-97393523D01*
X104571428Y-97107809D01*
X104666666Y-96917333D01*
X104857142Y-96822095D01*
X105904761Y-96822095D01*
X105904761Y-95869714D02*
X104571428Y-95869714D01*
X103904761Y-95869714D02*
X104000000Y-95964952D01*
X104095238Y-95869714D01*
X104000000Y-95774476D01*
X103904761Y-95869714D01*
X104095238Y-95869714D01*
X104571428Y-95203047D02*
X104571428Y-94441142D01*
X103904761Y-94917333D02*
X105619047Y-94917333D01*
X105809523Y-94822095D01*
X105904761Y-94631619D01*
X105904761Y-94441142D01*
X105904761Y-93488761D02*
X105809523Y-93679238D01*
X105714285Y-93774476D01*
X105523809Y-93869714D01*
X104952380Y-93869714D01*
X104761904Y-93774476D01*
X104666666Y-93679238D01*
X104571428Y-93488761D01*
X104571428Y-93203047D01*
X104666666Y-93012571D01*
X104761904Y-92917333D01*
X104952380Y-92822095D01*
X105523809Y-92822095D01*
X105714285Y-92917333D01*
X105809523Y-93012571D01*
X105904761Y-93203047D01*
X105904761Y-93488761D01*
X105904761Y-91964952D02*
X104571428Y-91964952D01*
X104952380Y-91964952D02*
X104761904Y-91869714D01*
X104666666Y-91774476D01*
X104571428Y-91584000D01*
X104571428Y-91393523D01*
X105904761Y-90726857D02*
X104571428Y-90726857D01*
X103904761Y-90726857D02*
X104000000Y-90822095D01*
X104095238Y-90726857D01*
X104000000Y-90631619D01*
X103904761Y-90726857D01*
X104095238Y-90726857D01*
X104571428Y-89774476D02*
X105904761Y-89774476D01*
X104761904Y-89774476D02*
X104666666Y-89679238D01*
X104571428Y-89488761D01*
X104571428Y-89203047D01*
X104666666Y-89012571D01*
X104857142Y-88917333D01*
X105904761Y-88917333D01*
X104571428Y-87107809D02*
X106190476Y-87107809D01*
X106380952Y-87203047D01*
X106476190Y-87298285D01*
X106571428Y-87488761D01*
X106571428Y-87774476D01*
X106476190Y-87964952D01*
X105809523Y-87107809D02*
X105904761Y-87298285D01*
X105904761Y-87679238D01*
X105809523Y-87869714D01*
X105714285Y-87964952D01*
X105523809Y-88060190D01*
X104952380Y-88060190D01*
X104761904Y-87964952D01*
X104666666Y-87869714D01*
X104571428Y-87679238D01*
X104571428Y-87298285D01*
X104666666Y-87107809D01*
X105809523Y-84726857D02*
X105904761Y-84441142D01*
X105904761Y-83964952D01*
X105809523Y-83774476D01*
X105714285Y-83679238D01*
X105523809Y-83584000D01*
X105333333Y-83584000D01*
X105142857Y-83679238D01*
X105047619Y-83774476D01*
X104952380Y-83964952D01*
X104857142Y-84345904D01*
X104761904Y-84536380D01*
X104666666Y-84631619D01*
X104476190Y-84726857D01*
X104285714Y-84726857D01*
X104095238Y-84631619D01*
X104000000Y-84536380D01*
X103904761Y-84345904D01*
X103904761Y-83869714D01*
X104000000Y-83584000D01*
X105809523Y-81964952D02*
X105904761Y-82155428D01*
X105904761Y-82536380D01*
X105809523Y-82726857D01*
X105619047Y-82822095D01*
X104857142Y-82822095D01*
X104666666Y-82726857D01*
X104571428Y-82536380D01*
X104571428Y-82155428D01*
X104666666Y-81964952D01*
X104857142Y-81869714D01*
X105047619Y-81869714D01*
X105238095Y-82822095D01*
X104571428Y-81012571D02*
X105904761Y-81012571D01*
X104761904Y-81012571D02*
X104666666Y-80917333D01*
X104571428Y-80726857D01*
X104571428Y-80441142D01*
X104666666Y-80250666D01*
X104857142Y-80155428D01*
X105904761Y-80155428D01*
X105809523Y-79298285D02*
X105904761Y-79107809D01*
X105904761Y-78726857D01*
X105809523Y-78536380D01*
X105619047Y-78441142D01*
X105523809Y-78441142D01*
X105333333Y-78536380D01*
X105238095Y-78726857D01*
X105238095Y-79012571D01*
X105142857Y-79203047D01*
X104952380Y-79298285D01*
X104857142Y-79298285D01*
X104666666Y-79203047D01*
X104571428Y-79012571D01*
X104571428Y-78726857D01*
X104666666Y-78536380D01*
X105904761Y-77298285D02*
X105809523Y-77488761D01*
X105714285Y-77584000D01*
X105523809Y-77679238D01*
X104952380Y-77679238D01*
X104761904Y-77584000D01*
X104666666Y-77488761D01*
X104571428Y-77298285D01*
X104571428Y-77012571D01*
X104666666Y-76822095D01*
X104761904Y-76726857D01*
X104952380Y-76631619D01*
X105523809Y-76631619D01*
X105714285Y-76726857D01*
X105809523Y-76822095D01*
X105904761Y-77012571D01*
X105904761Y-77298285D01*
X105904761Y-75774476D02*
X104571428Y-75774476D01*
X104952380Y-75774476D02*
X104761904Y-75679238D01*
X104666666Y-75584000D01*
X104571428Y-75393523D01*
X104571428Y-75203047D01*
D11*
%TO.C,LoRa*%
X120335000Y-77890000D02*
X120335000Y-78692470D01*
X120335000Y-79307530D02*
X120335000Y-80110000D01*
X134240000Y-77890000D02*
X120335000Y-77890000D01*
X134240000Y-80110000D02*
X120335000Y-80110000D01*
X134240000Y-77890000D02*
X134240000Y-78436529D01*
X134240000Y-79563471D02*
X134240000Y-80110000D01*
X135000000Y-77890000D02*
X135760000Y-77890000D01*
X135760000Y-77890000D02*
X135760000Y-79000000D01*
D12*
%TO.C,U101*%
X146117840Y-140440240D02*
X117582840Y-140440240D01*
X146117840Y-88440240D02*
X146117840Y-140440240D01*
X117582840Y-88440240D02*
X146117840Y-88440240D01*
X117582840Y-140440240D02*
X117582840Y-88440240D01*
D11*
%TO.C,TLS2561*%
X157792920Y-87580920D02*
X155132920Y-87580920D01*
X157792920Y-87580920D02*
X157792920Y-77360920D01*
X157792920Y-77360920D02*
X155132920Y-77360920D01*
X155132920Y-87580920D02*
X155132920Y-77360920D01*
X155132920Y-90180920D02*
X155132920Y-88850920D01*
X156462920Y-90180920D02*
X155132920Y-90180920D01*
%TO.C,J103*%
X157792920Y-121580920D02*
X155132920Y-121580920D01*
X157792920Y-121580920D02*
X157792920Y-113900920D01*
X157792920Y-113900920D02*
X155132920Y-113900920D01*
X155132920Y-121580920D02*
X155132920Y-113900920D01*
X155132920Y-124180920D02*
X155132920Y-122850920D01*
X156462920Y-124180920D02*
X155132920Y-124180920D01*
%TO.C,BME680*%
X157792920Y-107580920D02*
X155132920Y-107580920D01*
X157792920Y-107580920D02*
X157792920Y-94820920D01*
X157792920Y-94820920D02*
X155132920Y-94820920D01*
X155132920Y-107580920D02*
X155132920Y-94820920D01*
X155132920Y-110180920D02*
X155132920Y-108850920D01*
X156462920Y-110180920D02*
X155132920Y-110180920D01*
%TO.C,J101*%
X155132920Y-130120920D02*
X157792920Y-130120920D01*
X155132920Y-130120920D02*
X155132920Y-137800920D01*
X155132920Y-137800920D02*
X157792920Y-137800920D01*
X157792920Y-130120920D02*
X157792920Y-137800920D01*
X157792920Y-127520920D02*
X157792920Y-128850920D01*
X156462920Y-127520920D02*
X157792920Y-127520920D01*
%TO.C,.*%
D13*
X106172000Y-138533142D02*
X106219619Y-138580761D01*
X106172000Y-138628380D01*
X106124380Y-138580761D01*
X106172000Y-138533142D01*
X106172000Y-138628380D01*
X170180000Y-138533142D02*
X170227619Y-138580761D01*
X170180000Y-138628380D01*
X170132380Y-138580761D01*
X170180000Y-138533142D01*
X170180000Y-138628380D01*
X170688000Y-81637142D02*
X170735619Y-81684761D01*
X170688000Y-81732380D01*
X170640380Y-81684761D01*
X170688000Y-81637142D01*
X170688000Y-81732380D01*
%TO.C,LoRa*%
X138452380Y-80095238D02*
X138452380Y-80571428D01*
X137452380Y-80571428D01*
X138452380Y-79619047D02*
X138404761Y-79714285D01*
X138357142Y-79761904D01*
X138261904Y-79809523D01*
X137976190Y-79809523D01*
X137880952Y-79761904D01*
X137833333Y-79714285D01*
X137785714Y-79619047D01*
X137785714Y-79476190D01*
X137833333Y-79380952D01*
X137880952Y-79333333D01*
X137976190Y-79285714D01*
X138261904Y-79285714D01*
X138357142Y-79333333D01*
X138404761Y-79380952D01*
X138452380Y-79476190D01*
X138452380Y-79619047D01*
X138452380Y-78285714D02*
X137976190Y-78619047D01*
X138452380Y-78857142D02*
X137452380Y-78857142D01*
X137452380Y-78476190D01*
X137500000Y-78380952D01*
X137547619Y-78333333D01*
X137642857Y-78285714D01*
X137785714Y-78285714D01*
X137880952Y-78333333D01*
X137928571Y-78380952D01*
X137976190Y-78476190D01*
X137976190Y-78857142D01*
X138452380Y-77428571D02*
X137928571Y-77428571D01*
X137833333Y-77476190D01*
X137785714Y-77571428D01*
X137785714Y-77761904D01*
X137833333Y-77857142D01*
X138404761Y-77428571D02*
X138452380Y-77523809D01*
X138452380Y-77761904D01*
X138404761Y-77857142D01*
X138309523Y-77904761D01*
X138214285Y-77904761D01*
X138119047Y-77857142D01*
X138071428Y-77761904D01*
X138071428Y-77523809D01*
X138023809Y-77428571D01*
%TO.C,U101*%
D14*
X115765220Y-130744525D02*
X116574744Y-130744525D01*
X116669982Y-130696906D01*
X116717601Y-130649287D01*
X116765220Y-130554049D01*
X116765220Y-130363573D01*
X116717601Y-130268335D01*
X116669982Y-130220716D01*
X116574744Y-130173097D01*
X115765220Y-130173097D01*
X116765220Y-129173097D02*
X116765220Y-129744525D01*
X116765220Y-129458811D02*
X115765220Y-129458811D01*
X115908078Y-129554049D01*
X116003316Y-129649287D01*
X116050935Y-129744525D01*
X115765220Y-128554049D02*
X115765220Y-128458811D01*
X115812840Y-128363573D01*
X115860459Y-128315954D01*
X115955697Y-128268335D01*
X116146173Y-128220716D01*
X116384268Y-128220716D01*
X116574744Y-128268335D01*
X116669982Y-128315954D01*
X116717601Y-128363573D01*
X116765220Y-128458811D01*
X116765220Y-128554049D01*
X116717601Y-128649287D01*
X116669982Y-128696906D01*
X116574744Y-128744525D01*
X116384268Y-128792144D01*
X116146173Y-128792144D01*
X115955697Y-128744525D01*
X115860459Y-128696906D01*
X115812840Y-128649287D01*
X115765220Y-128554049D01*
X116765220Y-127268335D02*
X116765220Y-127839763D01*
X116765220Y-127554049D02*
X115765220Y-127554049D01*
X115908078Y-127649287D01*
X116003316Y-127744525D01*
X116050935Y-127839763D01*
X132116411Y-118783097D02*
X132116411Y-118483097D01*
X132640220Y-118354525D02*
X132640220Y-118783097D01*
X131640220Y-118783097D01*
X131640220Y-118354525D01*
X132592601Y-118011668D02*
X132640220Y-117883097D01*
X132640220Y-117668811D01*
X132592601Y-117583097D01*
X132544982Y-117540240D01*
X132449744Y-117497382D01*
X132354506Y-117497382D01*
X132259268Y-117540240D01*
X132211649Y-117583097D01*
X132164030Y-117668811D01*
X132116411Y-117840240D01*
X132068792Y-117925954D01*
X132021173Y-117968811D01*
X131925935Y-118011668D01*
X131830697Y-118011668D01*
X131735459Y-117968811D01*
X131687840Y-117925954D01*
X131640220Y-117840240D01*
X131640220Y-117625954D01*
X131687840Y-117497382D01*
X132640220Y-117111668D02*
X131640220Y-117111668D01*
X131640220Y-116768811D01*
X131687840Y-116683097D01*
X131735459Y-116640240D01*
X131830697Y-116597382D01*
X131973554Y-116597382D01*
X132068792Y-116640240D01*
X132116411Y-116683097D01*
X132164030Y-116768811D01*
X132164030Y-117111668D01*
X131640220Y-116297382D02*
X131640220Y-115740240D01*
X132021173Y-116040240D01*
X132021173Y-115911668D01*
X132068792Y-115825954D01*
X132116411Y-115783097D01*
X132211649Y-115740240D01*
X132449744Y-115740240D01*
X132544982Y-115783097D01*
X132592601Y-115825954D01*
X132640220Y-115911668D01*
X132640220Y-116168811D01*
X132592601Y-116254525D01*
X132544982Y-116297382D01*
X131735459Y-115397382D02*
X131687840Y-115354525D01*
X131640220Y-115268811D01*
X131640220Y-115054525D01*
X131687840Y-114968811D01*
X131735459Y-114925954D01*
X131830697Y-114883097D01*
X131925935Y-114883097D01*
X132068792Y-114925954D01*
X132640220Y-115440240D01*
X132640220Y-114883097D01*
X132640220Y-114497382D02*
X131640220Y-114497382D01*
X131640220Y-114283097D01*
X131687840Y-114154525D01*
X131783078Y-114068811D01*
X131878316Y-114025954D01*
X132068792Y-113983097D01*
X132211649Y-113983097D01*
X132402125Y-114025954D01*
X132497363Y-114068811D01*
X132592601Y-114154525D01*
X132640220Y-114283097D01*
X132640220Y-114497382D01*
X132116411Y-113597382D02*
X132116411Y-113297382D01*
X132640220Y-113168811D02*
X132640220Y-113597382D01*
X131640220Y-113597382D01*
X131640220Y-113168811D01*
X131640220Y-112911668D02*
X132640220Y-112611668D01*
X131640220Y-112311668D01*
X132640220Y-112011668D02*
X131640220Y-112011668D01*
X132640220Y-111497382D02*
X132068792Y-111883097D01*
X131640220Y-111497382D02*
X132211649Y-112011668D01*
X132640220Y-111111668D02*
X131640220Y-111111668D01*
X131640220Y-110811668D02*
X131640220Y-110297382D01*
X132640220Y-110554525D02*
X131640220Y-110554525D01*
X131640220Y-110125954D02*
X132640220Y-109825954D01*
X131640220Y-109525954D01*
X132640220Y-108754525D02*
X132640220Y-109268811D01*
X132640220Y-109011668D02*
X131640220Y-109011668D01*
X131783078Y-109097382D01*
X131878316Y-109183097D01*
X131925935Y-109268811D01*
X134026411Y-118275001D02*
X134026411Y-117941668D01*
X134550220Y-117798811D02*
X134550220Y-118275001D01*
X133550220Y-118275001D01*
X133550220Y-117798811D01*
X134502601Y-117417859D02*
X134550220Y-117275001D01*
X134550220Y-117036906D01*
X134502601Y-116941668D01*
X134454982Y-116894049D01*
X134359744Y-116846430D01*
X134264506Y-116846430D01*
X134169268Y-116894049D01*
X134121649Y-116941668D01*
X134074030Y-117036906D01*
X134026411Y-117227382D01*
X133978792Y-117322620D01*
X133931173Y-117370240D01*
X133835935Y-117417859D01*
X133740697Y-117417859D01*
X133645459Y-117370240D01*
X133597840Y-117322620D01*
X133550220Y-117227382D01*
X133550220Y-116989287D01*
X133597840Y-116846430D01*
X134550220Y-116417859D02*
X133550220Y-116417859D01*
X133550220Y-116036906D01*
X133597840Y-115941668D01*
X133645459Y-115894049D01*
X133740697Y-115846430D01*
X133883554Y-115846430D01*
X133978792Y-115894049D01*
X134026411Y-115941668D01*
X134074030Y-116036906D01*
X134074030Y-116417859D01*
X133550220Y-115513097D02*
X133550220Y-114894049D01*
X133931173Y-115227382D01*
X133931173Y-115084525D01*
X133978792Y-114989287D01*
X134026411Y-114941668D01*
X134121649Y-114894049D01*
X134359744Y-114894049D01*
X134454982Y-114941668D01*
X134502601Y-114989287D01*
X134550220Y-115084525D01*
X134550220Y-115370240D01*
X134502601Y-115465478D01*
X134454982Y-115513097D01*
X133645459Y-114513097D02*
X133597840Y-114465478D01*
X133550220Y-114370240D01*
X133550220Y-114132144D01*
X133597840Y-114036906D01*
X133645459Y-113989287D01*
X133740697Y-113941668D01*
X133835935Y-113941668D01*
X133978792Y-113989287D01*
X134550220Y-114560716D01*
X134550220Y-113941668D01*
X134169268Y-113513097D02*
X134169268Y-112751192D01*
X134550220Y-112275001D02*
X133550220Y-112275001D01*
X133550220Y-112036906D01*
X133597840Y-111894049D01*
X133693078Y-111798811D01*
X133788316Y-111751192D01*
X133978792Y-111703573D01*
X134121649Y-111703573D01*
X134312125Y-111751192D01*
X134407363Y-111798811D01*
X134502601Y-111894049D01*
X134550220Y-112036906D01*
X134550220Y-112275001D01*
X134502601Y-110894049D02*
X134550220Y-110989287D01*
X134550220Y-111179763D01*
X134502601Y-111275001D01*
X134407363Y-111322620D01*
X134026411Y-111322620D01*
X133931173Y-111275001D01*
X133883554Y-111179763D01*
X133883554Y-110989287D01*
X133931173Y-110894049D01*
X134026411Y-110846430D01*
X134121649Y-110846430D01*
X134216887Y-111322620D01*
X133883554Y-110513097D02*
X134550220Y-110275001D01*
X133883554Y-110036906D01*
X134550220Y-109655954D02*
X133550220Y-109655954D01*
X134169268Y-109560716D02*
X134550220Y-109275001D01*
X133883554Y-109275001D02*
X134264506Y-109655954D01*
X134550220Y-108846430D02*
X133883554Y-108846430D01*
X133550220Y-108846430D02*
X133597840Y-108894049D01*
X133645459Y-108846430D01*
X133597840Y-108798811D01*
X133550220Y-108846430D01*
X133645459Y-108846430D01*
X133883554Y-108513097D02*
X133883554Y-108132144D01*
X133550220Y-108370240D02*
X134407363Y-108370240D01*
X134502601Y-108322620D01*
X134550220Y-108227382D01*
X134550220Y-108132144D01*
X133312840Y-108036906D02*
X133312840Y-107179763D01*
X133550220Y-107941668D02*
X134550220Y-107608335D01*
X133550220Y-107275001D01*
X133312840Y-107179763D02*
X133312840Y-106227382D01*
X134550220Y-106417859D02*
X134550220Y-106989287D01*
X134550220Y-106703573D02*
X133550220Y-106703573D01*
X133693078Y-106798811D01*
X133788316Y-106894049D01*
X133835935Y-106989287D01*
X124326411Y-94808335D02*
X124326411Y-94475001D01*
X124850220Y-94332144D02*
X124850220Y-94808335D01*
X123850220Y-94808335D01*
X123850220Y-94332144D01*
X124850220Y-93903573D02*
X123850220Y-93903573D01*
X124850220Y-93332144D01*
X123850220Y-93332144D01*
X126390220Y-99681668D02*
X127390220Y-99348335D01*
X126390220Y-99015001D01*
X127390220Y-98681668D02*
X126390220Y-98681668D01*
X126390220Y-98300716D01*
X126437840Y-98205478D01*
X126485459Y-98157859D01*
X126580697Y-98110240D01*
X126723554Y-98110240D01*
X126818792Y-98157859D01*
X126866411Y-98205478D01*
X126914030Y-98300716D01*
X126914030Y-98681668D01*
X126342601Y-96967382D02*
X127628316Y-97824525D01*
X127390220Y-96634049D02*
X126390220Y-96634049D01*
X126390220Y-95967382D02*
X126390220Y-95776906D01*
X126437840Y-95681668D01*
X126533078Y-95586430D01*
X126723554Y-95538811D01*
X127056887Y-95538811D01*
X127247363Y-95586430D01*
X127342601Y-95681668D01*
X127390220Y-95776906D01*
X127390220Y-95967382D01*
X127342601Y-96062620D01*
X127247363Y-96157859D01*
X127056887Y-96205478D01*
X126723554Y-96205478D01*
X126533078Y-96157859D01*
X126437840Y-96062620D01*
X126390220Y-95967382D01*
X126390220Y-95205478D02*
X126390220Y-94586430D01*
X126771173Y-94919763D01*
X126771173Y-94776906D01*
X126818792Y-94681668D01*
X126866411Y-94634049D01*
X126961649Y-94586430D01*
X127199744Y-94586430D01*
X127294982Y-94634049D01*
X127342601Y-94681668D01*
X127390220Y-94776906D01*
X127390220Y-95062620D01*
X127342601Y-95157859D01*
X127294982Y-95205478D01*
X126390220Y-93729287D02*
X126390220Y-93919763D01*
X126437840Y-94015001D01*
X126485459Y-94062620D01*
X126628316Y-94157859D01*
X126818792Y-94205478D01*
X127199744Y-94205478D01*
X127294982Y-94157859D01*
X127342601Y-94110240D01*
X127390220Y-94015001D01*
X127390220Y-93824525D01*
X127342601Y-93729287D01*
X127294982Y-93681668D01*
X127199744Y-93634049D01*
X126961649Y-93634049D01*
X126866411Y-93681668D01*
X126818792Y-93729287D01*
X126771173Y-93824525D01*
X126771173Y-94015001D01*
X126818792Y-94110240D01*
X126866411Y-94157859D01*
X126961649Y-94205478D01*
X126390220Y-102245478D02*
X127390220Y-101912144D01*
X126390220Y-101578811D01*
X127390220Y-101245478D02*
X126390220Y-101245478D01*
X127390220Y-100674049D01*
X126390220Y-100674049D01*
X126342601Y-99483573D02*
X127628316Y-100340716D01*
X127390220Y-99150240D02*
X126390220Y-99150240D01*
X126390220Y-98483573D02*
X126390220Y-98293097D01*
X126437840Y-98197859D01*
X126533078Y-98102620D01*
X126723554Y-98055001D01*
X127056887Y-98055001D01*
X127247363Y-98102620D01*
X127342601Y-98197859D01*
X127390220Y-98293097D01*
X127390220Y-98483573D01*
X127342601Y-98578811D01*
X127247363Y-98674049D01*
X127056887Y-98721668D01*
X126723554Y-98721668D01*
X126533078Y-98674049D01*
X126437840Y-98578811D01*
X126390220Y-98483573D01*
X126390220Y-97721668D02*
X126390220Y-97102620D01*
X126771173Y-97435954D01*
X126771173Y-97293097D01*
X126818792Y-97197859D01*
X126866411Y-97150240D01*
X126961649Y-97102620D01*
X127199744Y-97102620D01*
X127294982Y-97150240D01*
X127342601Y-97197859D01*
X127390220Y-97293097D01*
X127390220Y-97578811D01*
X127342601Y-97674049D01*
X127294982Y-97721668D01*
X127390220Y-96626430D02*
X127390220Y-96435954D01*
X127342601Y-96340716D01*
X127294982Y-96293097D01*
X127152125Y-96197859D01*
X126961649Y-96150240D01*
X126580697Y-96150240D01*
X126485459Y-96197859D01*
X126437840Y-96245478D01*
X126390220Y-96340716D01*
X126390220Y-96531192D01*
X126437840Y-96626430D01*
X126485459Y-96674049D01*
X126580697Y-96721668D01*
X126818792Y-96721668D01*
X126914030Y-96674049D01*
X126961649Y-96626430D01*
X127009268Y-96531192D01*
X127009268Y-96340716D01*
X126961649Y-96245478D01*
X126914030Y-96197859D01*
X126818792Y-96150240D01*
X124850220Y-103166430D02*
X123850220Y-103166430D01*
X123850220Y-102499763D02*
X123850220Y-102309287D01*
X123897840Y-102214049D01*
X123993078Y-102118811D01*
X124183554Y-102071192D01*
X124516887Y-102071192D01*
X124707363Y-102118811D01*
X124802601Y-102214049D01*
X124850220Y-102309287D01*
X124850220Y-102499763D01*
X124802601Y-102595001D01*
X124707363Y-102690240D01*
X124516887Y-102737859D01*
X124183554Y-102737859D01*
X123993078Y-102690240D01*
X123897840Y-102595001D01*
X123850220Y-102499763D01*
X123850220Y-101737859D02*
X123850220Y-101118811D01*
X124231173Y-101452144D01*
X124231173Y-101309287D01*
X124278792Y-101214049D01*
X124326411Y-101166430D01*
X124421649Y-101118811D01*
X124659744Y-101118811D01*
X124754982Y-101166430D01*
X124802601Y-101214049D01*
X124850220Y-101309287D01*
X124850220Y-101595001D01*
X124802601Y-101690240D01*
X124754982Y-101737859D01*
X124183554Y-100261668D02*
X124850220Y-100261668D01*
X123802601Y-100499763D02*
X124516887Y-100737859D01*
X124516887Y-100118811D01*
X124850220Y-105706430D02*
X123850220Y-105706430D01*
X123850220Y-105039763D02*
X123850220Y-104849287D01*
X123897840Y-104754049D01*
X123993078Y-104658811D01*
X124183554Y-104611192D01*
X124516887Y-104611192D01*
X124707363Y-104658811D01*
X124802601Y-104754049D01*
X124850220Y-104849287D01*
X124850220Y-105039763D01*
X124802601Y-105135001D01*
X124707363Y-105230240D01*
X124516887Y-105277859D01*
X124183554Y-105277859D01*
X123993078Y-105230240D01*
X123897840Y-105135001D01*
X123850220Y-105039763D01*
X123850220Y-104277859D02*
X123850220Y-103658811D01*
X124231173Y-103992144D01*
X124231173Y-103849287D01*
X124278792Y-103754049D01*
X124326411Y-103706430D01*
X124421649Y-103658811D01*
X124659744Y-103658811D01*
X124754982Y-103706430D01*
X124802601Y-103754049D01*
X124850220Y-103849287D01*
X124850220Y-104135001D01*
X124802601Y-104230240D01*
X124754982Y-104277859D01*
X123850220Y-102754049D02*
X123850220Y-103230240D01*
X124326411Y-103277859D01*
X124278792Y-103230240D01*
X124231173Y-103135001D01*
X124231173Y-102896906D01*
X124278792Y-102801668D01*
X124326411Y-102754049D01*
X124421649Y-102706430D01*
X124659744Y-102706430D01*
X124754982Y-102754049D01*
X124802601Y-102801668D01*
X124850220Y-102896906D01*
X124850220Y-103135001D01*
X124802601Y-103230240D01*
X124754982Y-103277859D01*
X124850220Y-108246430D02*
X123850220Y-108246430D01*
X123850220Y-107579763D02*
X123850220Y-107389287D01*
X123897840Y-107294049D01*
X123993078Y-107198811D01*
X124183554Y-107151192D01*
X124516887Y-107151192D01*
X124707363Y-107198811D01*
X124802601Y-107294049D01*
X124850220Y-107389287D01*
X124850220Y-107579763D01*
X124802601Y-107675001D01*
X124707363Y-107770240D01*
X124516887Y-107817859D01*
X124183554Y-107817859D01*
X123993078Y-107770240D01*
X123897840Y-107675001D01*
X123850220Y-107579763D01*
X123850220Y-106817859D02*
X123850220Y-106198811D01*
X124231173Y-106532144D01*
X124231173Y-106389287D01*
X124278792Y-106294049D01*
X124326411Y-106246430D01*
X124421649Y-106198811D01*
X124659744Y-106198811D01*
X124754982Y-106246430D01*
X124802601Y-106294049D01*
X124850220Y-106389287D01*
X124850220Y-106675001D01*
X124802601Y-106770240D01*
X124754982Y-106817859D01*
X123945459Y-105817859D02*
X123897840Y-105770240D01*
X123850220Y-105675001D01*
X123850220Y-105436906D01*
X123897840Y-105341668D01*
X123945459Y-105294049D01*
X124040697Y-105246430D01*
X124135935Y-105246430D01*
X124278792Y-105294049D01*
X124850220Y-105865478D01*
X124850220Y-105246430D01*
X124850220Y-110786430D02*
X123850220Y-110786430D01*
X123850220Y-110119763D02*
X123850220Y-109929287D01*
X123897840Y-109834049D01*
X123993078Y-109738811D01*
X124183554Y-109691192D01*
X124516887Y-109691192D01*
X124707363Y-109738811D01*
X124802601Y-109834049D01*
X124850220Y-109929287D01*
X124850220Y-110119763D01*
X124802601Y-110215001D01*
X124707363Y-110310240D01*
X124516887Y-110357859D01*
X124183554Y-110357859D01*
X123993078Y-110310240D01*
X123897840Y-110215001D01*
X123850220Y-110119763D01*
X123850220Y-109357859D02*
X123850220Y-108738811D01*
X124231173Y-109072144D01*
X124231173Y-108929287D01*
X124278792Y-108834049D01*
X124326411Y-108786430D01*
X124421649Y-108738811D01*
X124659744Y-108738811D01*
X124754982Y-108786430D01*
X124802601Y-108834049D01*
X124850220Y-108929287D01*
X124850220Y-109215001D01*
X124802601Y-109310240D01*
X124754982Y-109357859D01*
X123850220Y-108405478D02*
X123850220Y-107786430D01*
X124231173Y-108119763D01*
X124231173Y-107976906D01*
X124278792Y-107881668D01*
X124326411Y-107834049D01*
X124421649Y-107786430D01*
X124659744Y-107786430D01*
X124754982Y-107834049D01*
X124802601Y-107881668D01*
X124850220Y-107976906D01*
X124850220Y-108262620D01*
X124802601Y-108357859D01*
X124754982Y-108405478D01*
X124850220Y-113326430D02*
X123850220Y-113326430D01*
X123850220Y-112659763D02*
X123850220Y-112469287D01*
X123897840Y-112374049D01*
X123993078Y-112278811D01*
X124183554Y-112231192D01*
X124516887Y-112231192D01*
X124707363Y-112278811D01*
X124802601Y-112374049D01*
X124850220Y-112469287D01*
X124850220Y-112659763D01*
X124802601Y-112755001D01*
X124707363Y-112850240D01*
X124516887Y-112897859D01*
X124183554Y-112897859D01*
X123993078Y-112850240D01*
X123897840Y-112755001D01*
X123850220Y-112659763D01*
X123945459Y-111850240D02*
X123897840Y-111802620D01*
X123850220Y-111707382D01*
X123850220Y-111469287D01*
X123897840Y-111374049D01*
X123945459Y-111326430D01*
X124040697Y-111278811D01*
X124135935Y-111278811D01*
X124278792Y-111326430D01*
X124850220Y-111897859D01*
X124850220Y-111278811D01*
X123850220Y-110374049D02*
X123850220Y-110850240D01*
X124326411Y-110897859D01*
X124278792Y-110850240D01*
X124231173Y-110755001D01*
X124231173Y-110516906D01*
X124278792Y-110421668D01*
X124326411Y-110374049D01*
X124421649Y-110326430D01*
X124659744Y-110326430D01*
X124754982Y-110374049D01*
X124802601Y-110421668D01*
X124850220Y-110516906D01*
X124850220Y-110755001D01*
X124802601Y-110850240D01*
X124754982Y-110897859D01*
X124850220Y-115866430D02*
X123850220Y-115866430D01*
X123850220Y-115199763D02*
X123850220Y-115009287D01*
X123897840Y-114914049D01*
X123993078Y-114818811D01*
X124183554Y-114771192D01*
X124516887Y-114771192D01*
X124707363Y-114818811D01*
X124802601Y-114914049D01*
X124850220Y-115009287D01*
X124850220Y-115199763D01*
X124802601Y-115295001D01*
X124707363Y-115390240D01*
X124516887Y-115437859D01*
X124183554Y-115437859D01*
X123993078Y-115390240D01*
X123897840Y-115295001D01*
X123850220Y-115199763D01*
X123945459Y-114390240D02*
X123897840Y-114342620D01*
X123850220Y-114247382D01*
X123850220Y-114009287D01*
X123897840Y-113914049D01*
X123945459Y-113866430D01*
X124040697Y-113818811D01*
X124135935Y-113818811D01*
X124278792Y-113866430D01*
X124850220Y-114437859D01*
X124850220Y-113818811D01*
X123850220Y-112961668D02*
X123850220Y-113152144D01*
X123897840Y-113247382D01*
X123945459Y-113295001D01*
X124088316Y-113390240D01*
X124278792Y-113437859D01*
X124659744Y-113437859D01*
X124754982Y-113390240D01*
X124802601Y-113342620D01*
X124850220Y-113247382D01*
X124850220Y-113056906D01*
X124802601Y-112961668D01*
X124754982Y-112914049D01*
X124659744Y-112866430D01*
X124421649Y-112866430D01*
X124326411Y-112914049D01*
X124278792Y-112961668D01*
X124231173Y-113056906D01*
X124231173Y-113247382D01*
X124278792Y-113342620D01*
X124326411Y-113390240D01*
X124421649Y-113437859D01*
X124850220Y-118406430D02*
X123850220Y-118406430D01*
X123850220Y-117739763D02*
X123850220Y-117549287D01*
X123897840Y-117454049D01*
X123993078Y-117358811D01*
X124183554Y-117311192D01*
X124516887Y-117311192D01*
X124707363Y-117358811D01*
X124802601Y-117454049D01*
X124850220Y-117549287D01*
X124850220Y-117739763D01*
X124802601Y-117835001D01*
X124707363Y-117930240D01*
X124516887Y-117977859D01*
X124183554Y-117977859D01*
X123993078Y-117930240D01*
X123897840Y-117835001D01*
X123850220Y-117739763D01*
X123945459Y-116930240D02*
X123897840Y-116882620D01*
X123850220Y-116787382D01*
X123850220Y-116549287D01*
X123897840Y-116454049D01*
X123945459Y-116406430D01*
X124040697Y-116358811D01*
X124135935Y-116358811D01*
X124278792Y-116406430D01*
X124850220Y-116977859D01*
X124850220Y-116358811D01*
X123850220Y-116025478D02*
X123850220Y-115358811D01*
X124850220Y-115787382D01*
X124850220Y-120946430D02*
X123850220Y-120946430D01*
X123850220Y-120279763D02*
X123850220Y-120089287D01*
X123897840Y-119994049D01*
X123993078Y-119898811D01*
X124183554Y-119851192D01*
X124516887Y-119851192D01*
X124707363Y-119898811D01*
X124802601Y-119994049D01*
X124850220Y-120089287D01*
X124850220Y-120279763D01*
X124802601Y-120375001D01*
X124707363Y-120470240D01*
X124516887Y-120517859D01*
X124183554Y-120517859D01*
X123993078Y-120470240D01*
X123897840Y-120375001D01*
X123850220Y-120279763D01*
X124850220Y-118898811D02*
X124850220Y-119470240D01*
X124850220Y-119184525D02*
X123850220Y-119184525D01*
X123993078Y-119279763D01*
X124088316Y-119375001D01*
X124135935Y-119470240D01*
X124183554Y-118041668D02*
X124850220Y-118041668D01*
X123802601Y-118279763D02*
X124516887Y-118517859D01*
X124516887Y-117898811D01*
X124850220Y-123486430D02*
X123850220Y-123486430D01*
X123850220Y-122819763D02*
X123850220Y-122629287D01*
X123897840Y-122534049D01*
X123993078Y-122438811D01*
X124183554Y-122391192D01*
X124516887Y-122391192D01*
X124707363Y-122438811D01*
X124802601Y-122534049D01*
X124850220Y-122629287D01*
X124850220Y-122819763D01*
X124802601Y-122915001D01*
X124707363Y-123010240D01*
X124516887Y-123057859D01*
X124183554Y-123057859D01*
X123993078Y-123010240D01*
X123897840Y-122915001D01*
X123850220Y-122819763D01*
X124850220Y-121438811D02*
X124850220Y-122010240D01*
X124850220Y-121724525D02*
X123850220Y-121724525D01*
X123993078Y-121819763D01*
X124088316Y-121915001D01*
X124135935Y-122010240D01*
X123945459Y-121057859D02*
X123897840Y-121010240D01*
X123850220Y-120915001D01*
X123850220Y-120676906D01*
X123897840Y-120581668D01*
X123945459Y-120534049D01*
X124040697Y-120486430D01*
X124135935Y-120486430D01*
X124278792Y-120534049D01*
X124850220Y-121105478D01*
X124850220Y-120486430D01*
X124850220Y-126026430D02*
X123850220Y-126026430D01*
X123850220Y-125359763D02*
X123850220Y-125169287D01*
X123897840Y-125074049D01*
X123993078Y-124978811D01*
X124183554Y-124931192D01*
X124516887Y-124931192D01*
X124707363Y-124978811D01*
X124802601Y-125074049D01*
X124850220Y-125169287D01*
X124850220Y-125359763D01*
X124802601Y-125455001D01*
X124707363Y-125550240D01*
X124516887Y-125597859D01*
X124183554Y-125597859D01*
X123993078Y-125550240D01*
X123897840Y-125455001D01*
X123850220Y-125359763D01*
X124850220Y-123978811D02*
X124850220Y-124550240D01*
X124850220Y-124264525D02*
X123850220Y-124264525D01*
X123993078Y-124359763D01*
X124088316Y-124455001D01*
X124135935Y-124550240D01*
X123850220Y-123645478D02*
X123850220Y-123026430D01*
X124231173Y-123359763D01*
X124231173Y-123216906D01*
X124278792Y-123121668D01*
X124326411Y-123074049D01*
X124421649Y-123026430D01*
X124659744Y-123026430D01*
X124754982Y-123074049D01*
X124802601Y-123121668D01*
X124850220Y-123216906D01*
X124850220Y-123502620D01*
X124802601Y-123597859D01*
X124754982Y-123645478D01*
X123897840Y-127852144D02*
X123850220Y-127947382D01*
X123850220Y-128090240D01*
X123897840Y-128233097D01*
X123993078Y-128328335D01*
X124088316Y-128375954D01*
X124278792Y-128423573D01*
X124421649Y-128423573D01*
X124612125Y-128375954D01*
X124707363Y-128328335D01*
X124802601Y-128233097D01*
X124850220Y-128090240D01*
X124850220Y-127995001D01*
X124802601Y-127852144D01*
X124754982Y-127804525D01*
X124421649Y-127804525D01*
X124421649Y-127995001D01*
X124850220Y-127375954D02*
X123850220Y-127375954D01*
X124850220Y-126804525D01*
X123850220Y-126804525D01*
X124850220Y-126328335D02*
X123850220Y-126328335D01*
X123850220Y-126090240D01*
X123897840Y-125947382D01*
X123993078Y-125852144D01*
X124088316Y-125804525D01*
X124278792Y-125756906D01*
X124421649Y-125756906D01*
X124612125Y-125804525D01*
X124707363Y-125852144D01*
X124802601Y-125947382D01*
X124850220Y-126090240D01*
X124850220Y-126328335D01*
X123850220Y-130725478D02*
X124850220Y-130392144D01*
X123850220Y-130058811D01*
X124850220Y-129725478D02*
X123850220Y-129725478D01*
X124850220Y-129249287D02*
X123850220Y-129249287D01*
X124850220Y-128677859D01*
X123850220Y-128677859D01*
X142570220Y-95566430D02*
X141570220Y-95566430D01*
X141570220Y-94899763D02*
X141570220Y-94709287D01*
X141617840Y-94614049D01*
X141713078Y-94518811D01*
X141903554Y-94471192D01*
X142236887Y-94471192D01*
X142427363Y-94518811D01*
X142522601Y-94614049D01*
X142570220Y-94709287D01*
X142570220Y-94899763D01*
X142522601Y-94995001D01*
X142427363Y-95090240D01*
X142236887Y-95137859D01*
X141903554Y-95137859D01*
X141713078Y-95090240D01*
X141617840Y-94995001D01*
X141570220Y-94899763D01*
X141665459Y-94090240D02*
X141617840Y-94042620D01*
X141570220Y-93947382D01*
X141570220Y-93709287D01*
X141617840Y-93614049D01*
X141665459Y-93566430D01*
X141760697Y-93518811D01*
X141855935Y-93518811D01*
X141998792Y-93566430D01*
X142570220Y-94137859D01*
X142570220Y-93518811D01*
X141570220Y-93185478D02*
X141570220Y-92566430D01*
X141951173Y-92899763D01*
X141951173Y-92756906D01*
X141998792Y-92661668D01*
X142046411Y-92614049D01*
X142141649Y-92566430D01*
X142379744Y-92566430D01*
X142474982Y-92614049D01*
X142522601Y-92661668D01*
X142570220Y-92756906D01*
X142570220Y-93042620D01*
X142522601Y-93137859D01*
X142474982Y-93185478D01*
X142570220Y-98106430D02*
X141570220Y-98106430D01*
X141570220Y-97439763D02*
X141570220Y-97249287D01*
X141617840Y-97154049D01*
X141713078Y-97058811D01*
X141903554Y-97011192D01*
X142236887Y-97011192D01*
X142427363Y-97058811D01*
X142522601Y-97154049D01*
X142570220Y-97249287D01*
X142570220Y-97439763D01*
X142522601Y-97535001D01*
X142427363Y-97630240D01*
X142236887Y-97677859D01*
X141903554Y-97677859D01*
X141713078Y-97630240D01*
X141617840Y-97535001D01*
X141570220Y-97439763D01*
X141665459Y-96630240D02*
X141617840Y-96582620D01*
X141570220Y-96487382D01*
X141570220Y-96249287D01*
X141617840Y-96154049D01*
X141665459Y-96106430D01*
X141760697Y-96058811D01*
X141855935Y-96058811D01*
X141998792Y-96106430D01*
X142570220Y-96677859D01*
X142570220Y-96058811D01*
X141665459Y-95677859D02*
X141617840Y-95630240D01*
X141570220Y-95535001D01*
X141570220Y-95296906D01*
X141617840Y-95201668D01*
X141665459Y-95154049D01*
X141760697Y-95106430D01*
X141855935Y-95106430D01*
X141998792Y-95154049D01*
X142570220Y-95725478D01*
X142570220Y-95106430D01*
X142570220Y-100170240D02*
X141570220Y-100170240D01*
X141570220Y-99503573D02*
X141570220Y-99313097D01*
X141617840Y-99217859D01*
X141713078Y-99122620D01*
X141903554Y-99075001D01*
X142236887Y-99075001D01*
X142427363Y-99122620D01*
X142522601Y-99217859D01*
X142570220Y-99313097D01*
X142570220Y-99503573D01*
X142522601Y-99598811D01*
X142427363Y-99694049D01*
X142236887Y-99741668D01*
X141903554Y-99741668D01*
X141713078Y-99694049D01*
X141617840Y-99598811D01*
X141570220Y-99503573D01*
X142570220Y-98122620D02*
X142570220Y-98694049D01*
X142570220Y-98408335D02*
X141570220Y-98408335D01*
X141713078Y-98503573D01*
X141808316Y-98598811D01*
X141855935Y-98694049D01*
X142570220Y-102710240D02*
X141570220Y-102710240D01*
X141570220Y-102043573D02*
X141570220Y-101853097D01*
X141617840Y-101757859D01*
X141713078Y-101662620D01*
X141903554Y-101615001D01*
X142236887Y-101615001D01*
X142427363Y-101662620D01*
X142522601Y-101757859D01*
X142570220Y-101853097D01*
X142570220Y-102043573D01*
X142522601Y-102138811D01*
X142427363Y-102234049D01*
X142236887Y-102281668D01*
X141903554Y-102281668D01*
X141713078Y-102234049D01*
X141617840Y-102138811D01*
X141570220Y-102043573D01*
X141570220Y-101281668D02*
X141570220Y-100662620D01*
X141951173Y-100995954D01*
X141951173Y-100853097D01*
X141998792Y-100757859D01*
X142046411Y-100710240D01*
X142141649Y-100662620D01*
X142379744Y-100662620D01*
X142474982Y-100710240D01*
X142522601Y-100757859D01*
X142570220Y-100853097D01*
X142570220Y-101138811D01*
X142522601Y-101234049D01*
X142474982Y-101281668D01*
X142570220Y-105726430D02*
X141570220Y-105726430D01*
X141570220Y-105059763D02*
X141570220Y-104869287D01*
X141617840Y-104774049D01*
X141713078Y-104678811D01*
X141903554Y-104631192D01*
X142236887Y-104631192D01*
X142427363Y-104678811D01*
X142522601Y-104774049D01*
X142570220Y-104869287D01*
X142570220Y-105059763D01*
X142522601Y-105155001D01*
X142427363Y-105250240D01*
X142236887Y-105297859D01*
X141903554Y-105297859D01*
X141713078Y-105250240D01*
X141617840Y-105155001D01*
X141570220Y-105059763D01*
X141665459Y-104250240D02*
X141617840Y-104202620D01*
X141570220Y-104107382D01*
X141570220Y-103869287D01*
X141617840Y-103774049D01*
X141665459Y-103726430D01*
X141760697Y-103678811D01*
X141855935Y-103678811D01*
X141998792Y-103726430D01*
X142570220Y-104297859D01*
X142570220Y-103678811D01*
X142570220Y-102726430D02*
X142570220Y-103297859D01*
X142570220Y-103012144D02*
X141570220Y-103012144D01*
X141713078Y-103107382D01*
X141808316Y-103202620D01*
X141855935Y-103297859D01*
X142570220Y-108266430D02*
X141570220Y-108266430D01*
X141570220Y-107599763D02*
X141570220Y-107409287D01*
X141617840Y-107314049D01*
X141713078Y-107218811D01*
X141903554Y-107171192D01*
X142236887Y-107171192D01*
X142427363Y-107218811D01*
X142522601Y-107314049D01*
X142570220Y-107409287D01*
X142570220Y-107599763D01*
X142522601Y-107695001D01*
X142427363Y-107790240D01*
X142236887Y-107837859D01*
X141903554Y-107837859D01*
X141713078Y-107790240D01*
X141617840Y-107695001D01*
X141570220Y-107599763D01*
X142570220Y-106218811D02*
X142570220Y-106790240D01*
X142570220Y-106504525D02*
X141570220Y-106504525D01*
X141713078Y-106599763D01*
X141808316Y-106695001D01*
X141855935Y-106790240D01*
X142570220Y-105742620D02*
X142570220Y-105552144D01*
X142522601Y-105456906D01*
X142474982Y-105409287D01*
X142332125Y-105314049D01*
X142141649Y-105266430D01*
X141760697Y-105266430D01*
X141665459Y-105314049D01*
X141617840Y-105361668D01*
X141570220Y-105456906D01*
X141570220Y-105647382D01*
X141617840Y-105742620D01*
X141665459Y-105790240D01*
X141760697Y-105837859D01*
X141998792Y-105837859D01*
X142094030Y-105790240D01*
X142141649Y-105742620D01*
X142189268Y-105647382D01*
X142189268Y-105456906D01*
X142141649Y-105361668D01*
X142094030Y-105314049D01*
X141998792Y-105266430D01*
X142570220Y-110806430D02*
X141570220Y-110806430D01*
X141570220Y-110139763D02*
X141570220Y-109949287D01*
X141617840Y-109854049D01*
X141713078Y-109758811D01*
X141903554Y-109711192D01*
X142236887Y-109711192D01*
X142427363Y-109758811D01*
X142522601Y-109854049D01*
X142570220Y-109949287D01*
X142570220Y-110139763D01*
X142522601Y-110235001D01*
X142427363Y-110330240D01*
X142236887Y-110377859D01*
X141903554Y-110377859D01*
X141713078Y-110330240D01*
X141617840Y-110235001D01*
X141570220Y-110139763D01*
X142570220Y-108758811D02*
X142570220Y-109330240D01*
X142570220Y-109044525D02*
X141570220Y-109044525D01*
X141713078Y-109139763D01*
X141808316Y-109235001D01*
X141855935Y-109330240D01*
X141998792Y-108187382D02*
X141951173Y-108282620D01*
X141903554Y-108330240D01*
X141808316Y-108377859D01*
X141760697Y-108377859D01*
X141665459Y-108330240D01*
X141617840Y-108282620D01*
X141570220Y-108187382D01*
X141570220Y-107996906D01*
X141617840Y-107901668D01*
X141665459Y-107854049D01*
X141760697Y-107806430D01*
X141808316Y-107806430D01*
X141903554Y-107854049D01*
X141951173Y-107901668D01*
X141998792Y-107996906D01*
X141998792Y-108187382D01*
X142046411Y-108282620D01*
X142094030Y-108330240D01*
X142189268Y-108377859D01*
X142379744Y-108377859D01*
X142474982Y-108330240D01*
X142522601Y-108282620D01*
X142570220Y-108187382D01*
X142570220Y-107996906D01*
X142522601Y-107901668D01*
X142474982Y-107854049D01*
X142379744Y-107806430D01*
X142189268Y-107806430D01*
X142094030Y-107854049D01*
X142046411Y-107901668D01*
X141998792Y-107996906D01*
X142570220Y-112870240D02*
X141570220Y-112870240D01*
X141570220Y-112203573D02*
X141570220Y-112013097D01*
X141617840Y-111917859D01*
X141713078Y-111822620D01*
X141903554Y-111775001D01*
X142236887Y-111775001D01*
X142427363Y-111822620D01*
X142522601Y-111917859D01*
X142570220Y-112013097D01*
X142570220Y-112203573D01*
X142522601Y-112298811D01*
X142427363Y-112394049D01*
X142236887Y-112441668D01*
X141903554Y-112441668D01*
X141713078Y-112394049D01*
X141617840Y-112298811D01*
X141570220Y-112203573D01*
X141570220Y-110870240D02*
X141570220Y-111346430D01*
X142046411Y-111394049D01*
X141998792Y-111346430D01*
X141951173Y-111251192D01*
X141951173Y-111013097D01*
X141998792Y-110917859D01*
X142046411Y-110870240D01*
X142141649Y-110822620D01*
X142379744Y-110822620D01*
X142474982Y-110870240D01*
X142522601Y-110917859D01*
X142570220Y-111013097D01*
X142570220Y-111251192D01*
X142522601Y-111346430D01*
X142474982Y-111394049D01*
X142570220Y-115886430D02*
X141570220Y-115886430D01*
X141570220Y-115219763D02*
X141570220Y-115029287D01*
X141617840Y-114934049D01*
X141713078Y-114838811D01*
X141903554Y-114791192D01*
X142236887Y-114791192D01*
X142427363Y-114838811D01*
X142522601Y-114934049D01*
X142570220Y-115029287D01*
X142570220Y-115219763D01*
X142522601Y-115315001D01*
X142427363Y-115410240D01*
X142236887Y-115457859D01*
X141903554Y-115457859D01*
X141713078Y-115410240D01*
X141617840Y-115315001D01*
X141570220Y-115219763D01*
X142570220Y-113838811D02*
X142570220Y-114410240D01*
X142570220Y-114124525D02*
X141570220Y-114124525D01*
X141713078Y-114219763D01*
X141808316Y-114315001D01*
X141855935Y-114410240D01*
X141570220Y-113505478D02*
X141570220Y-112838811D01*
X142570220Y-113267382D01*
X142570220Y-118426430D02*
X141570220Y-118426430D01*
X141570220Y-117759763D02*
X141570220Y-117569287D01*
X141617840Y-117474049D01*
X141713078Y-117378811D01*
X141903554Y-117331192D01*
X142236887Y-117331192D01*
X142427363Y-117378811D01*
X142522601Y-117474049D01*
X142570220Y-117569287D01*
X142570220Y-117759763D01*
X142522601Y-117855001D01*
X142427363Y-117950240D01*
X142236887Y-117997859D01*
X141903554Y-117997859D01*
X141713078Y-117950240D01*
X141617840Y-117855001D01*
X141570220Y-117759763D01*
X142570220Y-116378811D02*
X142570220Y-116950240D01*
X142570220Y-116664525D02*
X141570220Y-116664525D01*
X141713078Y-116759763D01*
X141808316Y-116855001D01*
X141855935Y-116950240D01*
X141570220Y-115521668D02*
X141570220Y-115712144D01*
X141617840Y-115807382D01*
X141665459Y-115855001D01*
X141808316Y-115950240D01*
X141998792Y-115997859D01*
X142379744Y-115997859D01*
X142474982Y-115950240D01*
X142522601Y-115902620D01*
X142570220Y-115807382D01*
X142570220Y-115616906D01*
X142522601Y-115521668D01*
X142474982Y-115474049D01*
X142379744Y-115426430D01*
X142141649Y-115426430D01*
X142046411Y-115474049D01*
X141998792Y-115521668D01*
X141951173Y-115616906D01*
X141951173Y-115807382D01*
X141998792Y-115902620D01*
X142046411Y-115950240D01*
X142141649Y-115997859D01*
X142570220Y-120490240D02*
X141570220Y-120490240D01*
X141570220Y-119823573D02*
X141570220Y-119633097D01*
X141617840Y-119537859D01*
X141713078Y-119442620D01*
X141903554Y-119395001D01*
X142236887Y-119395001D01*
X142427363Y-119442620D01*
X142522601Y-119537859D01*
X142570220Y-119633097D01*
X142570220Y-119823573D01*
X142522601Y-119918811D01*
X142427363Y-120014049D01*
X142236887Y-120061668D01*
X141903554Y-120061668D01*
X141713078Y-120014049D01*
X141617840Y-119918811D01*
X141570220Y-119823573D01*
X141903554Y-118537859D02*
X142570220Y-118537859D01*
X141522601Y-118775954D02*
X142236887Y-119014049D01*
X142236887Y-118395001D01*
X142570220Y-123030240D02*
X141570220Y-123030240D01*
X141570220Y-122363573D02*
X141570220Y-122173097D01*
X141617840Y-122077859D01*
X141713078Y-121982620D01*
X141903554Y-121935001D01*
X142236887Y-121935001D01*
X142427363Y-121982620D01*
X142522601Y-122077859D01*
X142570220Y-122173097D01*
X142570220Y-122363573D01*
X142522601Y-122458811D01*
X142427363Y-122554049D01*
X142236887Y-122601668D01*
X141903554Y-122601668D01*
X141713078Y-122554049D01*
X141617840Y-122458811D01*
X141570220Y-122363573D01*
X141665459Y-121554049D02*
X141617840Y-121506430D01*
X141570220Y-121411192D01*
X141570220Y-121173097D01*
X141617840Y-121077859D01*
X141665459Y-121030240D01*
X141760697Y-120982620D01*
X141855935Y-120982620D01*
X141998792Y-121030240D01*
X142570220Y-121601668D01*
X142570220Y-120982620D01*
X141617840Y-127872144D02*
X141570220Y-127967382D01*
X141570220Y-128110240D01*
X141617840Y-128253097D01*
X141713078Y-128348335D01*
X141808316Y-128395954D01*
X141998792Y-128443573D01*
X142141649Y-128443573D01*
X142332125Y-128395954D01*
X142427363Y-128348335D01*
X142522601Y-128253097D01*
X142570220Y-128110240D01*
X142570220Y-128015001D01*
X142522601Y-127872144D01*
X142474982Y-127824525D01*
X142141649Y-127824525D01*
X142141649Y-128015001D01*
X142570220Y-127395954D02*
X141570220Y-127395954D01*
X142570220Y-126824525D01*
X141570220Y-126824525D01*
X142570220Y-126348335D02*
X141570220Y-126348335D01*
X141570220Y-126110240D01*
X141617840Y-125967382D01*
X141713078Y-125872144D01*
X141808316Y-125824525D01*
X141998792Y-125776906D01*
X142141649Y-125776906D01*
X142332125Y-125824525D01*
X142427363Y-125872144D01*
X142522601Y-125967382D01*
X142570220Y-126110240D01*
X142570220Y-126348335D01*
X141570220Y-130888335D02*
X141570220Y-130269287D01*
X141951173Y-130602620D01*
X141951173Y-130459763D01*
X141998792Y-130364525D01*
X142046411Y-130316906D01*
X142141649Y-130269287D01*
X142379744Y-130269287D01*
X142474982Y-130316906D01*
X142522601Y-130364525D01*
X142570220Y-130459763D01*
X142570220Y-130745478D01*
X142522601Y-130840716D01*
X142474982Y-130888335D01*
X141570220Y-129983573D02*
X142570220Y-129650240D01*
X141570220Y-129316906D01*
X141570220Y-129078811D02*
X141570220Y-128459763D01*
X141951173Y-128793097D01*
X141951173Y-128650240D01*
X141998792Y-128555001D01*
X142046411Y-128507382D01*
X142141649Y-128459763D01*
X142379744Y-128459763D01*
X142474982Y-128507382D01*
X142522601Y-128555001D01*
X142570220Y-128650240D01*
X142570220Y-128935954D01*
X142522601Y-129031192D01*
X142474982Y-129078811D01*
%TO.C,TLS2561*%
D13*
X159452380Y-87071428D02*
X159452380Y-86500000D01*
X160452380Y-86785714D02*
X159452380Y-86785714D01*
X160452380Y-85690476D02*
X160452380Y-86166666D01*
X159452380Y-86166666D01*
X160404761Y-85404761D02*
X160452380Y-85261904D01*
X160452380Y-85023809D01*
X160404761Y-84928571D01*
X160357142Y-84880952D01*
X160261904Y-84833333D01*
X160166666Y-84833333D01*
X160071428Y-84880952D01*
X160023809Y-84928571D01*
X159976190Y-85023809D01*
X159928571Y-85214285D01*
X159880952Y-85309523D01*
X159833333Y-85357142D01*
X159738095Y-85404761D01*
X159642857Y-85404761D01*
X159547619Y-85357142D01*
X159500000Y-85309523D01*
X159452380Y-85214285D01*
X159452380Y-84976190D01*
X159500000Y-84833333D01*
X159547619Y-84452380D02*
X159500000Y-84404761D01*
X159452380Y-84309523D01*
X159452380Y-84071428D01*
X159500000Y-83976190D01*
X159547619Y-83928571D01*
X159642857Y-83880952D01*
X159738095Y-83880952D01*
X159880952Y-83928571D01*
X160452380Y-84500000D01*
X160452380Y-83880952D01*
X159452380Y-82976190D02*
X159452380Y-83452380D01*
X159928571Y-83500000D01*
X159880952Y-83452380D01*
X159833333Y-83357142D01*
X159833333Y-83119047D01*
X159880952Y-83023809D01*
X159928571Y-82976190D01*
X160023809Y-82928571D01*
X160261904Y-82928571D01*
X160357142Y-82976190D01*
X160404761Y-83023809D01*
X160452380Y-83119047D01*
X160452380Y-83357142D01*
X160404761Y-83452380D01*
X160357142Y-83500000D01*
X159452380Y-82071428D02*
X159452380Y-82261904D01*
X159500000Y-82357142D01*
X159547619Y-82404761D01*
X159690476Y-82500000D01*
X159880952Y-82547619D01*
X160261904Y-82547619D01*
X160357142Y-82500000D01*
X160404761Y-82452380D01*
X160452380Y-82357142D01*
X160452380Y-82166666D01*
X160404761Y-82071428D01*
X160357142Y-82023809D01*
X160261904Y-81976190D01*
X160023809Y-81976190D01*
X159928571Y-82023809D01*
X159880952Y-82071428D01*
X159833333Y-82166666D01*
X159833333Y-82357142D01*
X159880952Y-82452380D01*
X159928571Y-82500000D01*
X160023809Y-82547619D01*
X160452380Y-81023809D02*
X160452380Y-81595238D01*
X160452380Y-81309523D02*
X159452380Y-81309523D01*
X159595238Y-81404761D01*
X159690476Y-81500000D01*
X159738095Y-81595238D01*
%TO.C,J103*%
X159452380Y-122285714D02*
X160166666Y-122285714D01*
X160309523Y-122333333D01*
X160404761Y-122428571D01*
X160452380Y-122571428D01*
X160452380Y-122666666D01*
X160452380Y-121285714D02*
X160452380Y-121857142D01*
X160452380Y-121571428D02*
X159452380Y-121571428D01*
X159595238Y-121666666D01*
X159690476Y-121761904D01*
X159738095Y-121857142D01*
X159452380Y-120666666D02*
X159452380Y-120571428D01*
X159500000Y-120476190D01*
X159547619Y-120428571D01*
X159642857Y-120380952D01*
X159833333Y-120333333D01*
X160071428Y-120333333D01*
X160261904Y-120380952D01*
X160357142Y-120428571D01*
X160404761Y-120476190D01*
X160452380Y-120571428D01*
X160452380Y-120666666D01*
X160404761Y-120761904D01*
X160357142Y-120809523D01*
X160261904Y-120857142D01*
X160071428Y-120904761D01*
X159833333Y-120904761D01*
X159642857Y-120857142D01*
X159547619Y-120809523D01*
X159500000Y-120761904D01*
X159452380Y-120666666D01*
X159452380Y-120000000D02*
X159452380Y-119380952D01*
X159833333Y-119714285D01*
X159833333Y-119571428D01*
X159880952Y-119476190D01*
X159928571Y-119428571D01*
X160023809Y-119380952D01*
X160261904Y-119380952D01*
X160357142Y-119428571D01*
X160404761Y-119476190D01*
X160452380Y-119571428D01*
X160452380Y-119857142D01*
X160404761Y-119952380D01*
X160357142Y-120000000D01*
%TO.C,BME680*%
X159928571Y-109380952D02*
X159976190Y-109238095D01*
X160023809Y-109190476D01*
X160119047Y-109142857D01*
X160261904Y-109142857D01*
X160357142Y-109190476D01*
X160404761Y-109238095D01*
X160452380Y-109333333D01*
X160452380Y-109714285D01*
X159452380Y-109714285D01*
X159452380Y-109380952D01*
X159500000Y-109285714D01*
X159547619Y-109238095D01*
X159642857Y-109190476D01*
X159738095Y-109190476D01*
X159833333Y-109238095D01*
X159880952Y-109285714D01*
X159928571Y-109380952D01*
X159928571Y-109714285D01*
X160452380Y-108714285D02*
X159452380Y-108714285D01*
X160166666Y-108380952D01*
X159452380Y-108047619D01*
X160452380Y-108047619D01*
X159928571Y-107571428D02*
X159928571Y-107238095D01*
X160452380Y-107095238D02*
X160452380Y-107571428D01*
X159452380Y-107571428D01*
X159452380Y-107095238D01*
X159452380Y-106238095D02*
X159452380Y-106428571D01*
X159500000Y-106523809D01*
X159547619Y-106571428D01*
X159690476Y-106666666D01*
X159880952Y-106714285D01*
X160261904Y-106714285D01*
X160357142Y-106666666D01*
X160404761Y-106619047D01*
X160452380Y-106523809D01*
X160452380Y-106333333D01*
X160404761Y-106238095D01*
X160357142Y-106190476D01*
X160261904Y-106142857D01*
X160023809Y-106142857D01*
X159928571Y-106190476D01*
X159880952Y-106238095D01*
X159833333Y-106333333D01*
X159833333Y-106523809D01*
X159880952Y-106619047D01*
X159928571Y-106666666D01*
X160023809Y-106714285D01*
X159880952Y-105571428D02*
X159833333Y-105666666D01*
X159785714Y-105714285D01*
X159690476Y-105761904D01*
X159642857Y-105761904D01*
X159547619Y-105714285D01*
X159500000Y-105666666D01*
X159452380Y-105571428D01*
X159452380Y-105380952D01*
X159500000Y-105285714D01*
X159547619Y-105238095D01*
X159642857Y-105190476D01*
X159690476Y-105190476D01*
X159785714Y-105238095D01*
X159833333Y-105285714D01*
X159880952Y-105380952D01*
X159880952Y-105571428D01*
X159928571Y-105666666D01*
X159976190Y-105714285D01*
X160071428Y-105761904D01*
X160261904Y-105761904D01*
X160357142Y-105714285D01*
X160404761Y-105666666D01*
X160452380Y-105571428D01*
X160452380Y-105380952D01*
X160404761Y-105285714D01*
X160357142Y-105238095D01*
X160261904Y-105190476D01*
X160071428Y-105190476D01*
X159976190Y-105238095D01*
X159928571Y-105285714D01*
X159880952Y-105380952D01*
X159452380Y-104571428D02*
X159452380Y-104476190D01*
X159500000Y-104380952D01*
X159547619Y-104333333D01*
X159642857Y-104285714D01*
X159833333Y-104238095D01*
X160071428Y-104238095D01*
X160261904Y-104285714D01*
X160357142Y-104333333D01*
X160404761Y-104380952D01*
X160452380Y-104476190D01*
X160452380Y-104571428D01*
X160404761Y-104666666D01*
X160357142Y-104714285D01*
X160261904Y-104761904D01*
X160071428Y-104809523D01*
X159833333Y-104809523D01*
X159642857Y-104761904D01*
X159547619Y-104714285D01*
X159500000Y-104666666D01*
X159452380Y-104571428D01*
%TO.C,J101*%
X159452380Y-133285714D02*
X160166666Y-133285714D01*
X160309523Y-133333333D01*
X160404761Y-133428571D01*
X160452380Y-133571428D01*
X160452380Y-133666666D01*
X160452380Y-132285714D02*
X160452380Y-132857142D01*
X160452380Y-132571428D02*
X159452380Y-132571428D01*
X159595238Y-132666666D01*
X159690476Y-132761904D01*
X159738095Y-132857142D01*
X159452380Y-131666666D02*
X159452380Y-131571428D01*
X159500000Y-131476190D01*
X159547619Y-131428571D01*
X159642857Y-131380952D01*
X159833333Y-131333333D01*
X160071428Y-131333333D01*
X160261904Y-131380952D01*
X160357142Y-131428571D01*
X160404761Y-131476190D01*
X160452380Y-131571428D01*
X160452380Y-131666666D01*
X160404761Y-131761904D01*
X160357142Y-131809523D01*
X160261904Y-131857142D01*
X160071428Y-131904761D01*
X159833333Y-131904761D01*
X159642857Y-131857142D01*
X159547619Y-131809523D01*
X159500000Y-131761904D01*
X159452380Y-131666666D01*
X160452380Y-130380952D02*
X160452380Y-130952380D01*
X160452380Y-130666666D02*
X159452380Y-130666666D01*
X159595238Y-130761904D01*
X159690476Y-130857142D01*
X159738095Y-130952380D01*
%TD*%
M02*
