%FSLAX45Y45*%
G04 Gerber Fmt 4.5, Leading zero omitted, Abs format (unit mm)*
G04 Created by KiCad (PCBNEW (5.1.10)-1) date 2022-02-10 20:55:54*
%MOMM*%
%LPD*%
G01*
G04 APERTURE LIST*
%TA.AperFunction,Profile*%
%ADD10C,0.050000*%
%TD*%
%ADD11C,0.200000*%
%ADD12C,0.300000*%
G04 APERTURE END LIST*
D10*
X10200000Y-7200000D02*
X10200000Y-14200000D01*
X17500000Y-7200000D02*
X10200000Y-7200000D01*
X17500000Y-14200000D02*
X17400000Y-14200000D01*
X17500000Y-7200000D02*
X17500000Y-14200000D01*
X17400000Y-14200000D02*
X10200000Y-14200000D01*
D11*
X10530190Y-13242550D02*
X10850190Y-13562550D01*
X10850190Y-13242550D02*
X10530190Y-13562550D01*
X16840000Y-7540000D02*
X17160000Y-7860000D01*
X17160000Y-7540000D02*
X16840000Y-7860000D01*
X16930190Y-13242550D02*
X17250190Y-13562550D01*
X17250190Y-13242550D02*
X16930190Y-13562550D01*
D12*
X10483928Y-14668214D02*
X10483928Y-14368214D01*
X10555357Y-14368214D01*
X10598214Y-14382500D01*
X10626786Y-14411071D01*
X10641071Y-14439643D01*
X10655357Y-14496786D01*
X10655357Y-14539643D01*
X10641071Y-14596786D01*
X10626786Y-14625357D01*
X10598214Y-14653929D01*
X10555357Y-14668214D01*
X10483928Y-14668214D01*
X10783928Y-14668214D02*
X10783928Y-14468214D01*
X10783928Y-14525357D02*
X10798214Y-14496786D01*
X10812500Y-14482500D01*
X10841071Y-14468214D01*
X10869643Y-14468214D01*
X10969643Y-14668214D02*
X10969643Y-14468214D01*
X10969643Y-14368214D02*
X10955357Y-14382500D01*
X10969643Y-14396786D01*
X10983928Y-14382500D01*
X10969643Y-14368214D01*
X10969643Y-14396786D01*
X11155357Y-14668214D02*
X11126786Y-14653929D01*
X11112500Y-14625357D01*
X11112500Y-14368214D01*
X11312500Y-14668214D02*
X11283928Y-14653929D01*
X11269643Y-14625357D01*
X11269643Y-14368214D01*
X11655357Y-14668214D02*
X11655357Y-14368214D01*
X11755357Y-14582500D01*
X11855357Y-14368214D01*
X11855357Y-14668214D01*
X12126786Y-14668214D02*
X12126786Y-14511071D01*
X12112500Y-14482500D01*
X12083928Y-14468214D01*
X12026786Y-14468214D01*
X11998214Y-14482500D01*
X12126786Y-14653929D02*
X12098214Y-14668214D01*
X12026786Y-14668214D01*
X11998214Y-14653929D01*
X11983928Y-14625357D01*
X11983928Y-14596786D01*
X11998214Y-14568214D01*
X12026786Y-14553929D01*
X12098214Y-14553929D01*
X12126786Y-14539643D01*
X12269643Y-14468214D02*
X12269643Y-14768214D01*
X12269643Y-14482500D02*
X12298214Y-14468214D01*
X12355357Y-14468214D01*
X12383928Y-14482500D01*
X12398214Y-14496786D01*
X12412500Y-14525357D01*
X12412500Y-14611071D01*
X12398214Y-14639643D01*
X12383928Y-14653929D01*
X12355357Y-14668214D01*
X12298214Y-14668214D01*
X12269643Y-14653929D01*
X12541071Y-14639643D02*
X12555357Y-14653929D01*
X12541071Y-14668214D01*
X12526786Y-14653929D01*
X12541071Y-14639643D01*
X12541071Y-14668214D01*
X12541071Y-14482500D02*
X12555357Y-14496786D01*
X12541071Y-14511071D01*
X12526786Y-14496786D01*
X12541071Y-14482500D01*
X12541071Y-14511071D01*
X9877500Y-15002500D02*
X10197500Y-15322500D01*
X10197500Y-15002500D02*
X9877500Y-15322500D01*
X10455357Y-14998214D02*
X10641071Y-14998214D01*
X10541071Y-15112500D01*
X10583928Y-15112500D01*
X10612500Y-15126786D01*
X10626786Y-15141071D01*
X10641071Y-15169643D01*
X10641071Y-15241071D01*
X10626786Y-15269643D01*
X10612500Y-15283929D01*
X10583928Y-15298214D01*
X10498214Y-15298214D01*
X10469643Y-15283929D01*
X10455357Y-15269643D01*
X10769643Y-15269643D02*
X10783928Y-15283929D01*
X10769643Y-15298214D01*
X10755357Y-15283929D01*
X10769643Y-15269643D01*
X10769643Y-15298214D01*
X10898214Y-15026786D02*
X10912500Y-15012500D01*
X10941071Y-14998214D01*
X11012500Y-14998214D01*
X11041071Y-15012500D01*
X11055357Y-15026786D01*
X11069643Y-15055357D01*
X11069643Y-15083929D01*
X11055357Y-15126786D01*
X10883928Y-15298214D01*
X11069643Y-15298214D01*
X11255357Y-14998214D02*
X11283928Y-14998214D01*
X11312500Y-15012500D01*
X11326786Y-15026786D01*
X11341071Y-15055357D01*
X11355357Y-15112500D01*
X11355357Y-15183929D01*
X11341071Y-15241071D01*
X11326786Y-15269643D01*
X11312500Y-15283929D01*
X11283928Y-15298214D01*
X11255357Y-15298214D01*
X11226786Y-15283929D01*
X11212500Y-15269643D01*
X11198214Y-15241071D01*
X11183928Y-15183929D01*
X11183928Y-15112500D01*
X11198214Y-15055357D01*
X11212500Y-15026786D01*
X11226786Y-15012500D01*
X11255357Y-14998214D01*
X11541071Y-14998214D02*
X11569643Y-14998214D01*
X11598214Y-15012500D01*
X11612500Y-15026786D01*
X11626786Y-15055357D01*
X11641071Y-15112500D01*
X11641071Y-15183929D01*
X11626786Y-15241071D01*
X11612500Y-15269643D01*
X11598214Y-15283929D01*
X11569643Y-15298214D01*
X11541071Y-15298214D01*
X11512500Y-15283929D01*
X11498214Y-15269643D01*
X11483928Y-15241071D01*
X11469643Y-15183929D01*
X11469643Y-15112500D01*
X11483928Y-15055357D01*
X11498214Y-15026786D01*
X11512500Y-15012500D01*
X11541071Y-14998214D01*
X11769643Y-15298214D02*
X11769643Y-15098214D01*
X11769643Y-15126786D02*
X11783928Y-15112500D01*
X11812500Y-15098214D01*
X11855357Y-15098214D01*
X11883928Y-15112500D01*
X11898214Y-15141071D01*
X11898214Y-15298214D01*
X11898214Y-15141071D02*
X11912500Y-15112500D01*
X11941071Y-15098214D01*
X11983928Y-15098214D01*
X12012500Y-15112500D01*
X12026786Y-15141071D01*
X12026786Y-15298214D01*
X12169643Y-15298214D02*
X12169643Y-15098214D01*
X12169643Y-15126786D02*
X12183928Y-15112500D01*
X12212500Y-15098214D01*
X12255357Y-15098214D01*
X12283928Y-15112500D01*
X12298214Y-15141071D01*
X12298214Y-15298214D01*
X12298214Y-15141071D02*
X12312500Y-15112500D01*
X12341071Y-15098214D01*
X12383928Y-15098214D01*
X12412500Y-15112500D01*
X12426786Y-15141071D01*
X12426786Y-15298214D01*
X13012500Y-14983929D02*
X12755357Y-15369643D01*
X13398214Y-14998214D02*
X13426786Y-14998214D01*
X13455357Y-15012500D01*
X13469643Y-15026786D01*
X13483928Y-15055357D01*
X13498214Y-15112500D01*
X13498214Y-15183929D01*
X13483928Y-15241071D01*
X13469643Y-15269643D01*
X13455357Y-15283929D01*
X13426786Y-15298214D01*
X13398214Y-15298214D01*
X13369643Y-15283929D01*
X13355357Y-15269643D01*
X13341071Y-15241071D01*
X13326786Y-15183929D01*
X13326786Y-15112500D01*
X13341071Y-15055357D01*
X13355357Y-15026786D01*
X13369643Y-15012500D01*
X13398214Y-14998214D01*
X13626786Y-15269643D02*
X13641071Y-15283929D01*
X13626786Y-15298214D01*
X13612500Y-15283929D01*
X13626786Y-15269643D01*
X13626786Y-15298214D01*
X13926786Y-15298214D02*
X13755357Y-15298214D01*
X13841071Y-15298214D02*
X13841071Y-14998214D01*
X13812500Y-15041071D01*
X13783928Y-15069643D01*
X13755357Y-15083929D01*
X14041071Y-15026786D02*
X14055357Y-15012500D01*
X14083928Y-14998214D01*
X14155357Y-14998214D01*
X14183928Y-15012500D01*
X14198214Y-15026786D01*
X14212500Y-15055357D01*
X14212500Y-15083929D01*
X14198214Y-15126786D01*
X14026786Y-15298214D01*
X14212500Y-15298214D01*
X14469643Y-14998214D02*
X14412500Y-14998214D01*
X14383928Y-15012500D01*
X14369643Y-15026786D01*
X14341071Y-15069643D01*
X14326786Y-15126786D01*
X14326786Y-15241071D01*
X14341071Y-15269643D01*
X14355357Y-15283929D01*
X14383928Y-15298214D01*
X14441071Y-15298214D01*
X14469643Y-15283929D01*
X14483928Y-15269643D01*
X14498214Y-15241071D01*
X14498214Y-15169643D01*
X14483928Y-15141071D01*
X14469643Y-15126786D01*
X14441071Y-15112500D01*
X14383928Y-15112500D01*
X14355357Y-15126786D01*
X14341071Y-15141071D01*
X14326786Y-15169643D01*
X14683928Y-14998214D02*
X14712500Y-14998214D01*
X14741071Y-15012500D01*
X14755357Y-15026786D01*
X14769643Y-15055357D01*
X14783928Y-15112500D01*
X14783928Y-15183929D01*
X14769643Y-15241071D01*
X14755357Y-15269643D01*
X14741071Y-15283929D01*
X14712500Y-15298214D01*
X14683928Y-15298214D01*
X14655357Y-15283929D01*
X14641071Y-15269643D01*
X14626786Y-15241071D01*
X14612500Y-15183929D01*
X14612500Y-15112500D01*
X14626786Y-15055357D01*
X14641071Y-15026786D01*
X14655357Y-15012500D01*
X14683928Y-14998214D01*
X14898214Y-14998214D02*
X14898214Y-15055357D01*
X15012500Y-14998214D02*
X15012500Y-15055357D01*
X15455357Y-15412500D02*
X15441071Y-15398214D01*
X15412500Y-15355357D01*
X15398214Y-15326786D01*
X15383928Y-15283929D01*
X15369643Y-15212500D01*
X15369643Y-15155357D01*
X15383928Y-15083929D01*
X15398214Y-15041071D01*
X15412500Y-15012500D01*
X15441071Y-14969643D01*
X15455357Y-14955357D01*
X15541071Y-14998214D02*
X15726786Y-14998214D01*
X15626786Y-15112500D01*
X15669643Y-15112500D01*
X15698214Y-15126786D01*
X15712500Y-15141071D01*
X15726786Y-15169643D01*
X15726786Y-15241071D01*
X15712500Y-15269643D01*
X15698214Y-15283929D01*
X15669643Y-15298214D01*
X15583928Y-15298214D01*
X15555357Y-15283929D01*
X15541071Y-15269643D01*
X16083928Y-15298214D02*
X16083928Y-14998214D01*
X16212500Y-15298214D02*
X16212500Y-15141071D01*
X16198214Y-15112500D01*
X16169643Y-15098214D01*
X16126786Y-15098214D01*
X16098214Y-15112500D01*
X16083928Y-15126786D01*
X16398214Y-15298214D02*
X16369643Y-15283929D01*
X16355357Y-15269643D01*
X16341071Y-15241071D01*
X16341071Y-15155357D01*
X16355357Y-15126786D01*
X16369643Y-15112500D01*
X16398214Y-15098214D01*
X16441071Y-15098214D01*
X16469643Y-15112500D01*
X16483928Y-15126786D01*
X16498214Y-15155357D01*
X16498214Y-15241071D01*
X16483928Y-15269643D01*
X16469643Y-15283929D01*
X16441071Y-15298214D01*
X16398214Y-15298214D01*
X16669643Y-15298214D02*
X16641071Y-15283929D01*
X16626786Y-15255357D01*
X16626786Y-14998214D01*
X16898214Y-15283929D02*
X16869643Y-15298214D01*
X16812500Y-15298214D01*
X16783928Y-15283929D01*
X16769643Y-15255357D01*
X16769643Y-15141071D01*
X16783928Y-15112500D01*
X16812500Y-15098214D01*
X16869643Y-15098214D01*
X16898214Y-15112500D01*
X16912500Y-15141071D01*
X16912500Y-15169643D01*
X16769643Y-15198214D01*
X17026786Y-15283929D02*
X17055357Y-15298214D01*
X17112500Y-15298214D01*
X17141071Y-15283929D01*
X17155357Y-15255357D01*
X17155357Y-15241071D01*
X17141071Y-15212500D01*
X17112500Y-15198214D01*
X17069643Y-15198214D01*
X17041071Y-15183929D01*
X17026786Y-15155357D01*
X17026786Y-15141071D01*
X17041071Y-15112500D01*
X17069643Y-15098214D01*
X17112500Y-15098214D01*
X17141071Y-15112500D01*
X17255357Y-15412500D02*
X17269643Y-15398214D01*
X17298214Y-15355357D01*
X17312500Y-15326786D01*
X17326786Y-15283929D01*
X17341071Y-15212500D01*
X17341071Y-15155357D01*
X17326786Y-15083929D01*
X17312500Y-15041071D01*
X17298214Y-15012500D01*
X17269643Y-14969643D01*
X17255357Y-14955357D01*
X17798214Y-15412500D02*
X17783928Y-15398214D01*
X17755357Y-15355357D01*
X17741071Y-15326786D01*
X17726786Y-15283929D01*
X17712500Y-15212500D01*
X17712500Y-15155357D01*
X17726786Y-15083929D01*
X17741071Y-15041071D01*
X17755357Y-15012500D01*
X17783928Y-14969643D01*
X17798214Y-14955357D01*
X17912500Y-15098214D02*
X17912500Y-15298214D01*
X17912500Y-15126786D02*
X17926786Y-15112500D01*
X17955357Y-15098214D01*
X17998214Y-15098214D01*
X18026786Y-15112500D01*
X18041071Y-15141071D01*
X18041071Y-15298214D01*
X18226786Y-15298214D02*
X18198214Y-15283929D01*
X18183928Y-15269643D01*
X18169643Y-15241071D01*
X18169643Y-15155357D01*
X18183928Y-15126786D01*
X18198214Y-15112500D01*
X18226786Y-15098214D01*
X18269643Y-15098214D01*
X18298214Y-15112500D01*
X18312500Y-15126786D01*
X18326786Y-15155357D01*
X18326786Y-15241071D01*
X18312500Y-15269643D01*
X18298214Y-15283929D01*
X18269643Y-15298214D01*
X18226786Y-15298214D01*
X18412500Y-15098214D02*
X18526786Y-15098214D01*
X18455357Y-14998214D02*
X18455357Y-15255357D01*
X18469643Y-15283929D01*
X18498214Y-15298214D01*
X18526786Y-15298214D01*
X18855357Y-15098214D02*
X18855357Y-15398214D01*
X18855357Y-15112500D02*
X18883928Y-15098214D01*
X18941071Y-15098214D01*
X18969643Y-15112500D01*
X18983928Y-15126786D01*
X18998214Y-15155357D01*
X18998214Y-15241071D01*
X18983928Y-15269643D01*
X18969643Y-15283929D01*
X18941071Y-15298214D01*
X18883928Y-15298214D01*
X18855357Y-15283929D01*
X19169643Y-15298214D02*
X19141071Y-15283929D01*
X19126786Y-15255357D01*
X19126786Y-14998214D01*
X19412500Y-15298214D02*
X19412500Y-15141071D01*
X19398214Y-15112500D01*
X19369643Y-15098214D01*
X19312500Y-15098214D01*
X19283928Y-15112500D01*
X19412500Y-15283929D02*
X19383928Y-15298214D01*
X19312500Y-15298214D01*
X19283928Y-15283929D01*
X19269643Y-15255357D01*
X19269643Y-15226786D01*
X19283928Y-15198214D01*
X19312500Y-15183929D01*
X19383928Y-15183929D01*
X19412500Y-15169643D01*
X19512500Y-15098214D02*
X19626786Y-15098214D01*
X19555357Y-14998214D02*
X19555357Y-15255357D01*
X19569643Y-15283929D01*
X19598214Y-15298214D01*
X19626786Y-15298214D01*
X19841071Y-15283929D02*
X19812500Y-15298214D01*
X19755357Y-15298214D01*
X19726786Y-15283929D01*
X19712500Y-15255357D01*
X19712500Y-15141071D01*
X19726786Y-15112500D01*
X19755357Y-15098214D01*
X19812500Y-15098214D01*
X19841071Y-15112500D01*
X19855357Y-15141071D01*
X19855357Y-15169643D01*
X19712500Y-15198214D01*
X20112500Y-15298214D02*
X20112500Y-14998214D01*
X20112500Y-15283929D02*
X20083928Y-15298214D01*
X20026786Y-15298214D01*
X19998214Y-15283929D01*
X19983928Y-15269643D01*
X19969643Y-15241071D01*
X19969643Y-15155357D01*
X19983928Y-15126786D01*
X19998214Y-15112500D01*
X20026786Y-15098214D01*
X20083928Y-15098214D01*
X20112500Y-15112500D01*
X20226786Y-15412500D02*
X20241071Y-15398214D01*
X20269643Y-15355357D01*
X20283928Y-15326786D01*
X20298214Y-15283929D01*
X20312500Y-15212500D01*
X20312500Y-15155357D01*
X20298214Y-15083929D01*
X20283928Y-15041071D01*
X20269643Y-15012500D01*
X20241071Y-14969643D01*
X20226786Y-14955357D01*
M02*
