%FSLAX45Y45*%
G04 Gerber Fmt 4.5, Leading zero omitted, Abs format (unit mm)*
G04 Created by KiCad (PCBNEW (5.1.10)-1) date 2022-02-10 20:55:54*
%MOMM*%
%LPD*%
G01*
G04 APERTURE LIST*
%TA.AperFunction,Profile*%
%ADD10C,0.050000*%
%TD*%
%ADD11C,0.200000*%
%ADD12C,0.300000*%
G04 APERTURE END LIST*
D10*
X10200000Y-7200000D02*
X10200000Y-14200000D01*
X17500000Y-7200000D02*
X10200000Y-7200000D01*
X17500000Y-14200000D02*
X17400000Y-14200000D01*
X17500000Y-7200000D02*
X17500000Y-14200000D01*
X17400000Y-14200000D02*
X10200000Y-14200000D01*
D11*
X12718000Y-8518000D02*
X12758000Y-8558000D01*
X12758000Y-8518000D02*
X12718000Y-8558000D01*
X13980000Y-8380000D02*
X14020000Y-8420000D01*
X14020000Y-8380000D02*
X13980000Y-8420000D01*
X12135500Y-7900000D02*
G75*
G03*
X12135500Y-7900000I-32500J0D01*
G01*
X12262500Y-7900000D02*
G75*
G03*
X12262500Y-7900000I-32500J0D01*
G01*
X12389500Y-7900000D02*
G75*
G03*
X12389500Y-7900000I-32500J0D01*
G01*
X12516500Y-7900000D02*
G75*
G03*
X12516500Y-7900000I-32500J0D01*
G01*
X12643500Y-7900000D02*
G75*
G03*
X12643500Y-7900000I-32500J0D01*
G01*
X12770500Y-7900000D02*
G75*
G03*
X12770500Y-7900000I-32500J0D01*
G01*
X12897500Y-7900000D02*
G75*
G03*
X12897500Y-7900000I-32500J0D01*
G01*
X13024500Y-7900000D02*
G75*
G03*
X13024500Y-7900000I-32500J0D01*
G01*
X13151500Y-7900000D02*
G75*
G03*
X13151500Y-7900000I-32500J0D01*
G01*
X13278500Y-7900000D02*
G75*
G03*
X13278500Y-7900000I-32500J0D01*
G01*
X13405500Y-7900000D02*
G75*
G03*
X13405500Y-7900000I-32500J0D01*
G01*
X13532500Y-7900000D02*
G75*
G03*
X13532500Y-7900000I-32500J0D01*
G01*
X11905284Y-9425024D02*
X11905284Y-9525024D01*
X11855284Y-9475024D02*
X11955284Y-9475024D01*
X11905284Y-9679024D02*
X11905284Y-9779024D01*
X11855284Y-9729024D02*
X11955284Y-9729024D01*
X11905284Y-9933024D02*
X11905284Y-10033024D01*
X11855284Y-9983024D02*
X11955284Y-9983024D01*
X11905284Y-10187024D02*
X11905284Y-10287024D01*
X11855284Y-10237024D02*
X11955284Y-10237024D01*
X11905284Y-10441024D02*
X11905284Y-10541024D01*
X11855284Y-10491024D02*
X11955284Y-10491024D01*
X11905284Y-10695024D02*
X11905284Y-10795024D01*
X11855284Y-10745024D02*
X11955284Y-10745024D01*
X11905284Y-10949024D02*
X11905284Y-11049024D01*
X11855284Y-10999024D02*
X11955284Y-10999024D01*
X11905284Y-11203024D02*
X11905284Y-11303024D01*
X11855284Y-11253024D02*
X11955284Y-11253024D01*
X11905284Y-11457024D02*
X11905284Y-11557024D01*
X11855284Y-11507024D02*
X11955284Y-11507024D01*
X11905284Y-11711024D02*
X11905284Y-11811024D01*
X11855284Y-11761024D02*
X11955284Y-11761024D01*
X11905284Y-11965024D02*
X11905284Y-12065024D01*
X11855284Y-12015024D02*
X11955284Y-12015024D01*
X11905284Y-12219024D02*
X11905284Y-12319024D01*
X11855284Y-12269024D02*
X11955284Y-12269024D01*
X11905284Y-12473024D02*
X11905284Y-12573024D01*
X11855284Y-12523024D02*
X11955284Y-12523024D01*
X11905284Y-12727024D02*
X11905284Y-12827024D01*
X11855284Y-12777024D02*
X11955284Y-12777024D01*
X11905284Y-12981024D02*
X11905284Y-13081024D01*
X11855284Y-13031024D02*
X11955284Y-13031024D01*
X14445784Y-9425024D02*
X14445784Y-9525024D01*
X14395784Y-9475024D02*
X14495784Y-9475024D01*
X14445784Y-9679024D02*
X14445784Y-9779024D01*
X14395784Y-9729024D02*
X14495784Y-9729024D01*
X14445784Y-9933024D02*
X14445784Y-10033024D01*
X14395784Y-9983024D02*
X14495784Y-9983024D01*
X14445784Y-10187024D02*
X14445784Y-10287024D01*
X14395784Y-10237024D02*
X14495784Y-10237024D01*
X14445784Y-10441024D02*
X14445784Y-10541024D01*
X14395784Y-10491024D02*
X14495784Y-10491024D01*
X14445784Y-10695024D02*
X14445784Y-10795024D01*
X14395784Y-10745024D02*
X14495784Y-10745024D01*
X14445784Y-10949024D02*
X14445784Y-11049024D01*
X14395784Y-10999024D02*
X14495784Y-10999024D01*
X14445784Y-11203024D02*
X14445784Y-11303024D01*
X14395784Y-11253024D02*
X14495784Y-11253024D01*
X14445784Y-11457024D02*
X14445784Y-11557024D01*
X14395784Y-11507024D02*
X14495784Y-11507024D01*
X14445784Y-11711024D02*
X14445784Y-11811024D01*
X14395784Y-11761024D02*
X14495784Y-11761024D01*
X14445784Y-11965024D02*
X14445784Y-12065024D01*
X14395784Y-12015024D02*
X14495784Y-12015024D01*
X14445784Y-12219024D02*
X14445784Y-12319024D01*
X14395784Y-12269024D02*
X14495784Y-12269024D01*
X14445784Y-12473024D02*
X14445784Y-12573024D01*
X14395784Y-12523024D02*
X14495784Y-12523024D01*
X14445784Y-12727024D02*
X14445784Y-12827024D01*
X14395784Y-12777024D02*
X14495784Y-12777024D01*
X14445784Y-12981024D02*
X14445784Y-13081024D01*
X14395784Y-13031024D02*
X14495784Y-13031024D01*
X15646292Y-7819092D02*
X15646292Y-7919092D01*
X15596292Y-7869092D02*
X15696292Y-7869092D01*
X15646292Y-8073092D02*
X15646292Y-8173092D01*
X15596292Y-8123092D02*
X15696292Y-8123092D01*
X15646292Y-8327092D02*
X15646292Y-8427092D01*
X15596292Y-8377092D02*
X15696292Y-8377092D01*
X15646292Y-8581092D02*
X15646292Y-8681092D01*
X15596292Y-8631092D02*
X15696292Y-8631092D01*
X15646292Y-8835092D02*
X15646292Y-8935092D01*
X15596292Y-8885092D02*
X15696292Y-8885092D01*
X15646292Y-9565092D02*
X15646292Y-9665092D01*
X15596292Y-9615092D02*
X15696292Y-9615092D01*
X15646292Y-9819092D02*
X15646292Y-9919092D01*
X15596292Y-9869092D02*
X15696292Y-9869092D01*
X15646292Y-10073092D02*
X15646292Y-10173092D01*
X15596292Y-10123092D02*
X15696292Y-10123092D01*
X15646292Y-10327092D02*
X15646292Y-10427092D01*
X15596292Y-10377092D02*
X15696292Y-10377092D01*
X15646292Y-10581092D02*
X15646292Y-10681092D01*
X15596292Y-10631092D02*
X15696292Y-10631092D01*
X15646292Y-10835092D02*
X15646292Y-10935092D01*
X15596292Y-10885092D02*
X15696292Y-10885092D01*
X15646292Y-11473092D02*
X15646292Y-11573092D01*
X15596292Y-11523092D02*
X15696292Y-11523092D01*
X15646292Y-11727092D02*
X15646292Y-11827092D01*
X15596292Y-11777092D02*
X15696292Y-11777092D01*
X15646292Y-11981092D02*
X15646292Y-12081092D01*
X15596292Y-12031092D02*
X15696292Y-12031092D01*
X15646292Y-12235092D02*
X15646292Y-12335092D01*
X15596292Y-12285092D02*
X15696292Y-12285092D01*
X15646292Y-12835092D02*
X15646292Y-12935092D01*
X15596292Y-12885092D02*
X15696292Y-12885092D01*
X15646292Y-13089092D02*
X15646292Y-13189092D01*
X15596292Y-13139092D02*
X15696292Y-13139092D01*
X15646292Y-13343092D02*
X15646292Y-13443092D01*
X15596292Y-13393092D02*
X15696292Y-13393092D01*
X15646292Y-13597092D02*
X15646292Y-13697092D01*
X15596292Y-13647092D02*
X15696292Y-13647092D01*
D12*
X10483928Y-14668214D02*
X10483928Y-14368214D01*
X10555357Y-14368214D01*
X10598214Y-14382500D01*
X10626786Y-14411071D01*
X10641071Y-14439643D01*
X10655357Y-14496786D01*
X10655357Y-14539643D01*
X10641071Y-14596786D01*
X10626786Y-14625357D01*
X10598214Y-14653929D01*
X10555357Y-14668214D01*
X10483928Y-14668214D01*
X10783928Y-14668214D02*
X10783928Y-14468214D01*
X10783928Y-14525357D02*
X10798214Y-14496786D01*
X10812500Y-14482500D01*
X10841071Y-14468214D01*
X10869643Y-14468214D01*
X10969643Y-14668214D02*
X10969643Y-14468214D01*
X10969643Y-14368214D02*
X10955357Y-14382500D01*
X10969643Y-14396786D01*
X10983928Y-14382500D01*
X10969643Y-14368214D01*
X10969643Y-14396786D01*
X11155357Y-14668214D02*
X11126786Y-14653929D01*
X11112500Y-14625357D01*
X11112500Y-14368214D01*
X11312500Y-14668214D02*
X11283928Y-14653929D01*
X11269643Y-14625357D01*
X11269643Y-14368214D01*
X11655357Y-14668214D02*
X11655357Y-14368214D01*
X11755357Y-14582500D01*
X11855357Y-14368214D01*
X11855357Y-14668214D01*
X12126786Y-14668214D02*
X12126786Y-14511071D01*
X12112500Y-14482500D01*
X12083928Y-14468214D01*
X12026786Y-14468214D01*
X11998214Y-14482500D01*
X12126786Y-14653929D02*
X12098214Y-14668214D01*
X12026786Y-14668214D01*
X11998214Y-14653929D01*
X11983928Y-14625357D01*
X11983928Y-14596786D01*
X11998214Y-14568214D01*
X12026786Y-14553929D01*
X12098214Y-14553929D01*
X12126786Y-14539643D01*
X12269643Y-14468214D02*
X12269643Y-14768214D01*
X12269643Y-14482500D02*
X12298214Y-14468214D01*
X12355357Y-14468214D01*
X12383928Y-14482500D01*
X12398214Y-14496786D01*
X12412500Y-14525357D01*
X12412500Y-14611071D01*
X12398214Y-14639643D01*
X12383928Y-14653929D01*
X12355357Y-14668214D01*
X12298214Y-14668214D01*
X12269643Y-14653929D01*
X12541071Y-14639643D02*
X12555357Y-14653929D01*
X12541071Y-14668214D01*
X12526786Y-14653929D01*
X12541071Y-14639643D01*
X12541071Y-14668214D01*
X12541071Y-14482500D02*
X12555357Y-14496786D01*
X12541071Y-14511071D01*
X12526786Y-14496786D01*
X12541071Y-14482500D01*
X12541071Y-14511071D01*
X10157500Y-15142500D02*
X10197500Y-15182500D01*
X10197500Y-15142500D02*
X10157500Y-15182500D01*
X10541071Y-14998214D02*
X10569643Y-14998214D01*
X10598214Y-15012500D01*
X10612500Y-15026786D01*
X10626786Y-15055357D01*
X10641071Y-15112500D01*
X10641071Y-15183929D01*
X10626786Y-15241071D01*
X10612500Y-15269643D01*
X10598214Y-15283929D01*
X10569643Y-15298214D01*
X10541071Y-15298214D01*
X10512500Y-15283929D01*
X10498214Y-15269643D01*
X10483928Y-15241071D01*
X10469643Y-15183929D01*
X10469643Y-15112500D01*
X10483928Y-15055357D01*
X10498214Y-15026786D01*
X10512500Y-15012500D01*
X10541071Y-14998214D01*
X10769643Y-15269643D02*
X10783928Y-15283929D01*
X10769643Y-15298214D01*
X10755357Y-15283929D01*
X10769643Y-15269643D01*
X10769643Y-15298214D01*
X11041071Y-15098214D02*
X11041071Y-15298214D01*
X10969643Y-14983929D02*
X10898214Y-15198214D01*
X11083928Y-15198214D01*
X11255357Y-14998214D02*
X11283928Y-14998214D01*
X11312500Y-15012500D01*
X11326786Y-15026786D01*
X11341071Y-15055357D01*
X11355357Y-15112500D01*
X11355357Y-15183929D01*
X11341071Y-15241071D01*
X11326786Y-15269643D01*
X11312500Y-15283929D01*
X11283928Y-15298214D01*
X11255357Y-15298214D01*
X11226786Y-15283929D01*
X11212500Y-15269643D01*
X11198214Y-15241071D01*
X11183928Y-15183929D01*
X11183928Y-15112500D01*
X11198214Y-15055357D01*
X11212500Y-15026786D01*
X11226786Y-15012500D01*
X11255357Y-14998214D01*
X11541071Y-14998214D02*
X11569643Y-14998214D01*
X11598214Y-15012500D01*
X11612500Y-15026786D01*
X11626786Y-15055357D01*
X11641071Y-15112500D01*
X11641071Y-15183929D01*
X11626786Y-15241071D01*
X11612500Y-15269643D01*
X11598214Y-15283929D01*
X11569643Y-15298214D01*
X11541071Y-15298214D01*
X11512500Y-15283929D01*
X11498214Y-15269643D01*
X11483928Y-15241071D01*
X11469643Y-15183929D01*
X11469643Y-15112500D01*
X11483928Y-15055357D01*
X11498214Y-15026786D01*
X11512500Y-15012500D01*
X11541071Y-14998214D01*
X11769643Y-15298214D02*
X11769643Y-15098214D01*
X11769643Y-15126786D02*
X11783928Y-15112500D01*
X11812500Y-15098214D01*
X11855357Y-15098214D01*
X11883928Y-15112500D01*
X11898214Y-15141071D01*
X11898214Y-15298214D01*
X11898214Y-15141071D02*
X11912500Y-15112500D01*
X11941071Y-15098214D01*
X11983928Y-15098214D01*
X12012500Y-15112500D01*
X12026786Y-15141071D01*
X12026786Y-15298214D01*
X12169643Y-15298214D02*
X12169643Y-15098214D01*
X12169643Y-15126786D02*
X12183928Y-15112500D01*
X12212500Y-15098214D01*
X12255357Y-15098214D01*
X12283928Y-15112500D01*
X12298214Y-15141071D01*
X12298214Y-15298214D01*
X12298214Y-15141071D02*
X12312500Y-15112500D01*
X12341071Y-15098214D01*
X12383928Y-15098214D01*
X12412500Y-15112500D01*
X12426786Y-15141071D01*
X12426786Y-15298214D01*
X13012500Y-14983929D02*
X12755357Y-15369643D01*
X13398214Y-14998214D02*
X13426786Y-14998214D01*
X13455357Y-15012500D01*
X13469643Y-15026786D01*
X13483928Y-15055357D01*
X13498214Y-15112500D01*
X13498214Y-15183929D01*
X13483928Y-15241071D01*
X13469643Y-15269643D01*
X13455357Y-15283929D01*
X13426786Y-15298214D01*
X13398214Y-15298214D01*
X13369643Y-15283929D01*
X13355357Y-15269643D01*
X13341071Y-15241071D01*
X13326786Y-15183929D01*
X13326786Y-15112500D01*
X13341071Y-15055357D01*
X13355357Y-15026786D01*
X13369643Y-15012500D01*
X13398214Y-14998214D01*
X13626786Y-15269643D02*
X13641071Y-15283929D01*
X13626786Y-15298214D01*
X13612500Y-15283929D01*
X13626786Y-15269643D01*
X13626786Y-15298214D01*
X13826786Y-14998214D02*
X13855357Y-14998214D01*
X13883928Y-15012500D01*
X13898214Y-15026786D01*
X13912500Y-15055357D01*
X13926786Y-15112500D01*
X13926786Y-15183929D01*
X13912500Y-15241071D01*
X13898214Y-15269643D01*
X13883928Y-15283929D01*
X13855357Y-15298214D01*
X13826786Y-15298214D01*
X13798214Y-15283929D01*
X13783928Y-15269643D01*
X13769643Y-15241071D01*
X13755357Y-15183929D01*
X13755357Y-15112500D01*
X13769643Y-15055357D01*
X13783928Y-15026786D01*
X13798214Y-15012500D01*
X13826786Y-14998214D01*
X14212500Y-15298214D02*
X14041071Y-15298214D01*
X14126786Y-15298214D02*
X14126786Y-14998214D01*
X14098214Y-15041071D01*
X14069643Y-15069643D01*
X14041071Y-15083929D01*
X14483928Y-14998214D02*
X14341071Y-14998214D01*
X14326786Y-15141071D01*
X14341071Y-15126786D01*
X14369643Y-15112500D01*
X14441071Y-15112500D01*
X14469643Y-15126786D01*
X14483928Y-15141071D01*
X14498214Y-15169643D01*
X14498214Y-15241071D01*
X14483928Y-15269643D01*
X14469643Y-15283929D01*
X14441071Y-15298214D01*
X14369643Y-15298214D01*
X14341071Y-15283929D01*
X14326786Y-15269643D01*
X14598214Y-14998214D02*
X14798214Y-14998214D01*
X14669643Y-15298214D01*
X14898214Y-14998214D02*
X14898214Y-15055357D01*
X15012500Y-14998214D02*
X15012500Y-15055357D01*
X15455357Y-15412500D02*
X15441071Y-15398214D01*
X15412500Y-15355357D01*
X15398214Y-15326786D01*
X15383928Y-15283929D01*
X15369643Y-15212500D01*
X15369643Y-15155357D01*
X15383928Y-15083929D01*
X15398214Y-15041071D01*
X15412500Y-15012500D01*
X15441071Y-14969643D01*
X15455357Y-14955357D01*
X15555357Y-15026786D02*
X15569643Y-15012500D01*
X15598214Y-14998214D01*
X15669643Y-14998214D01*
X15698214Y-15012500D01*
X15712500Y-15026786D01*
X15726786Y-15055357D01*
X15726786Y-15083929D01*
X15712500Y-15126786D01*
X15541071Y-15298214D01*
X15726786Y-15298214D01*
X16083928Y-15298214D02*
X16083928Y-14998214D01*
X16212500Y-15298214D02*
X16212500Y-15141071D01*
X16198214Y-15112500D01*
X16169643Y-15098214D01*
X16126786Y-15098214D01*
X16098214Y-15112500D01*
X16083928Y-15126786D01*
X16398214Y-15298214D02*
X16369643Y-15283929D01*
X16355357Y-15269643D01*
X16341071Y-15241071D01*
X16341071Y-15155357D01*
X16355357Y-15126786D01*
X16369643Y-15112500D01*
X16398214Y-15098214D01*
X16441071Y-15098214D01*
X16469643Y-15112500D01*
X16483928Y-15126786D01*
X16498214Y-15155357D01*
X16498214Y-15241071D01*
X16483928Y-15269643D01*
X16469643Y-15283929D01*
X16441071Y-15298214D01*
X16398214Y-15298214D01*
X16669643Y-15298214D02*
X16641071Y-15283929D01*
X16626786Y-15255357D01*
X16626786Y-14998214D01*
X16898214Y-15283929D02*
X16869643Y-15298214D01*
X16812500Y-15298214D01*
X16783928Y-15283929D01*
X16769643Y-15255357D01*
X16769643Y-15141071D01*
X16783928Y-15112500D01*
X16812500Y-15098214D01*
X16869643Y-15098214D01*
X16898214Y-15112500D01*
X16912500Y-15141071D01*
X16912500Y-15169643D01*
X16769643Y-15198214D01*
X17026786Y-15283929D02*
X17055357Y-15298214D01*
X17112500Y-15298214D01*
X17141071Y-15283929D01*
X17155357Y-15255357D01*
X17155357Y-15241071D01*
X17141071Y-15212500D01*
X17112500Y-15198214D01*
X17069643Y-15198214D01*
X17041071Y-15183929D01*
X17026786Y-15155357D01*
X17026786Y-15141071D01*
X17041071Y-15112500D01*
X17069643Y-15098214D01*
X17112500Y-15098214D01*
X17141071Y-15112500D01*
X17255357Y-15412500D02*
X17269643Y-15398214D01*
X17298214Y-15355357D01*
X17312500Y-15326786D01*
X17326786Y-15283929D01*
X17341071Y-15212500D01*
X17341071Y-15155357D01*
X17326786Y-15083929D01*
X17312500Y-15041071D01*
X17298214Y-15012500D01*
X17269643Y-14969643D01*
X17255357Y-14955357D01*
X10197500Y-15558500D02*
G75*
G03*
X10197500Y-15558500I-32500J0D01*
G01*
X10541071Y-15394214D02*
X10569643Y-15394214D01*
X10598214Y-15408500D01*
X10612500Y-15422786D01*
X10626786Y-15451357D01*
X10641071Y-15508500D01*
X10641071Y-15579929D01*
X10626786Y-15637071D01*
X10612500Y-15665643D01*
X10598214Y-15679929D01*
X10569643Y-15694214D01*
X10541071Y-15694214D01*
X10512500Y-15679929D01*
X10498214Y-15665643D01*
X10483928Y-15637071D01*
X10469643Y-15579929D01*
X10469643Y-15508500D01*
X10483928Y-15451357D01*
X10498214Y-15422786D01*
X10512500Y-15408500D01*
X10541071Y-15394214D01*
X10769643Y-15665643D02*
X10783928Y-15679929D01*
X10769643Y-15694214D01*
X10755357Y-15679929D01*
X10769643Y-15665643D01*
X10769643Y-15694214D01*
X11041071Y-15394214D02*
X10983928Y-15394214D01*
X10955357Y-15408500D01*
X10941071Y-15422786D01*
X10912500Y-15465643D01*
X10898214Y-15522786D01*
X10898214Y-15637071D01*
X10912500Y-15665643D01*
X10926786Y-15679929D01*
X10955357Y-15694214D01*
X11012500Y-15694214D01*
X11041071Y-15679929D01*
X11055357Y-15665643D01*
X11069643Y-15637071D01*
X11069643Y-15565643D01*
X11055357Y-15537071D01*
X11041071Y-15522786D01*
X11012500Y-15508500D01*
X10955357Y-15508500D01*
X10926786Y-15522786D01*
X10912500Y-15537071D01*
X10898214Y-15565643D01*
X11341071Y-15394214D02*
X11198214Y-15394214D01*
X11183928Y-15537071D01*
X11198214Y-15522786D01*
X11226786Y-15508500D01*
X11298214Y-15508500D01*
X11326786Y-15522786D01*
X11341071Y-15537071D01*
X11355357Y-15565643D01*
X11355357Y-15637071D01*
X11341071Y-15665643D01*
X11326786Y-15679929D01*
X11298214Y-15694214D01*
X11226786Y-15694214D01*
X11198214Y-15679929D01*
X11183928Y-15665643D01*
X11541071Y-15394214D02*
X11569643Y-15394214D01*
X11598214Y-15408500D01*
X11612500Y-15422786D01*
X11626786Y-15451357D01*
X11641071Y-15508500D01*
X11641071Y-15579929D01*
X11626786Y-15637071D01*
X11612500Y-15665643D01*
X11598214Y-15679929D01*
X11569643Y-15694214D01*
X11541071Y-15694214D01*
X11512500Y-15679929D01*
X11498214Y-15665643D01*
X11483928Y-15637071D01*
X11469643Y-15579929D01*
X11469643Y-15508500D01*
X11483928Y-15451357D01*
X11498214Y-15422786D01*
X11512500Y-15408500D01*
X11541071Y-15394214D01*
X11769643Y-15694214D02*
X11769643Y-15494214D01*
X11769643Y-15522786D02*
X11783928Y-15508500D01*
X11812500Y-15494214D01*
X11855357Y-15494214D01*
X11883928Y-15508500D01*
X11898214Y-15537071D01*
X11898214Y-15694214D01*
X11898214Y-15537071D02*
X11912500Y-15508500D01*
X11941071Y-15494214D01*
X11983928Y-15494214D01*
X12012500Y-15508500D01*
X12026786Y-15537071D01*
X12026786Y-15694214D01*
X12169643Y-15694214D02*
X12169643Y-15494214D01*
X12169643Y-15522786D02*
X12183928Y-15508500D01*
X12212500Y-15494214D01*
X12255357Y-15494214D01*
X12283928Y-15508500D01*
X12298214Y-15537071D01*
X12298214Y-15694214D01*
X12298214Y-15537071D02*
X12312500Y-15508500D01*
X12341071Y-15494214D01*
X12383928Y-15494214D01*
X12412500Y-15508500D01*
X12426786Y-15537071D01*
X12426786Y-15694214D01*
X13012500Y-15379929D02*
X12755357Y-15765643D01*
X13398214Y-15394214D02*
X13426786Y-15394214D01*
X13455357Y-15408500D01*
X13469643Y-15422786D01*
X13483928Y-15451357D01*
X13498214Y-15508500D01*
X13498214Y-15579929D01*
X13483928Y-15637071D01*
X13469643Y-15665643D01*
X13455357Y-15679929D01*
X13426786Y-15694214D01*
X13398214Y-15694214D01*
X13369643Y-15679929D01*
X13355357Y-15665643D01*
X13341071Y-15637071D01*
X13326786Y-15579929D01*
X13326786Y-15508500D01*
X13341071Y-15451357D01*
X13355357Y-15422786D01*
X13369643Y-15408500D01*
X13398214Y-15394214D01*
X13626786Y-15665643D02*
X13641071Y-15679929D01*
X13626786Y-15694214D01*
X13612500Y-15679929D01*
X13626786Y-15665643D01*
X13626786Y-15694214D01*
X13826786Y-15394214D02*
X13855357Y-15394214D01*
X13883928Y-15408500D01*
X13898214Y-15422786D01*
X13912500Y-15451357D01*
X13926786Y-15508500D01*
X13926786Y-15579929D01*
X13912500Y-15637071D01*
X13898214Y-15665643D01*
X13883928Y-15679929D01*
X13855357Y-15694214D01*
X13826786Y-15694214D01*
X13798214Y-15679929D01*
X13783928Y-15665643D01*
X13769643Y-15637071D01*
X13755357Y-15579929D01*
X13755357Y-15508500D01*
X13769643Y-15451357D01*
X13783928Y-15422786D01*
X13798214Y-15408500D01*
X13826786Y-15394214D01*
X14041071Y-15422786D02*
X14055357Y-15408500D01*
X14083928Y-15394214D01*
X14155357Y-15394214D01*
X14183928Y-15408500D01*
X14198214Y-15422786D01*
X14212500Y-15451357D01*
X14212500Y-15479929D01*
X14198214Y-15522786D01*
X14026786Y-15694214D01*
X14212500Y-15694214D01*
X14483928Y-15394214D02*
X14341071Y-15394214D01*
X14326786Y-15537071D01*
X14341071Y-15522786D01*
X14369643Y-15508500D01*
X14441071Y-15508500D01*
X14469643Y-15522786D01*
X14483928Y-15537071D01*
X14498214Y-15565643D01*
X14498214Y-15637071D01*
X14483928Y-15665643D01*
X14469643Y-15679929D01*
X14441071Y-15694214D01*
X14369643Y-15694214D01*
X14341071Y-15679929D01*
X14326786Y-15665643D01*
X14755357Y-15394214D02*
X14698214Y-15394214D01*
X14669643Y-15408500D01*
X14655357Y-15422786D01*
X14626786Y-15465643D01*
X14612500Y-15522786D01*
X14612500Y-15637071D01*
X14626786Y-15665643D01*
X14641071Y-15679929D01*
X14669643Y-15694214D01*
X14726786Y-15694214D01*
X14755357Y-15679929D01*
X14769643Y-15665643D01*
X14783928Y-15637071D01*
X14783928Y-15565643D01*
X14769643Y-15537071D01*
X14755357Y-15522786D01*
X14726786Y-15508500D01*
X14669643Y-15508500D01*
X14641071Y-15522786D01*
X14626786Y-15537071D01*
X14612500Y-15565643D01*
X14898214Y-15394214D02*
X14898214Y-15451357D01*
X15012500Y-15394214D02*
X15012500Y-15451357D01*
X15455357Y-15808500D02*
X15441071Y-15794214D01*
X15412500Y-15751357D01*
X15398214Y-15722786D01*
X15383928Y-15679929D01*
X15369643Y-15608500D01*
X15369643Y-15551357D01*
X15383928Y-15479929D01*
X15398214Y-15437071D01*
X15412500Y-15408500D01*
X15441071Y-15365643D01*
X15455357Y-15351357D01*
X15726786Y-15694214D02*
X15555357Y-15694214D01*
X15641071Y-15694214D02*
X15641071Y-15394214D01*
X15612500Y-15437071D01*
X15583928Y-15465643D01*
X15555357Y-15479929D01*
X15841071Y-15422786D02*
X15855357Y-15408500D01*
X15883928Y-15394214D01*
X15955357Y-15394214D01*
X15983928Y-15408500D01*
X15998214Y-15422786D01*
X16012500Y-15451357D01*
X16012500Y-15479929D01*
X15998214Y-15522786D01*
X15826786Y-15694214D01*
X16012500Y-15694214D01*
X16369643Y-15694214D02*
X16369643Y-15394214D01*
X16498214Y-15694214D02*
X16498214Y-15537071D01*
X16483928Y-15508500D01*
X16455357Y-15494214D01*
X16412500Y-15494214D01*
X16383928Y-15508500D01*
X16369643Y-15522786D01*
X16683928Y-15694214D02*
X16655357Y-15679929D01*
X16641071Y-15665643D01*
X16626786Y-15637071D01*
X16626786Y-15551357D01*
X16641071Y-15522786D01*
X16655357Y-15508500D01*
X16683928Y-15494214D01*
X16726786Y-15494214D01*
X16755357Y-15508500D01*
X16769643Y-15522786D01*
X16783928Y-15551357D01*
X16783928Y-15637071D01*
X16769643Y-15665643D01*
X16755357Y-15679929D01*
X16726786Y-15694214D01*
X16683928Y-15694214D01*
X16955357Y-15694214D02*
X16926786Y-15679929D01*
X16912500Y-15651357D01*
X16912500Y-15394214D01*
X17183928Y-15679929D02*
X17155357Y-15694214D01*
X17098214Y-15694214D01*
X17069643Y-15679929D01*
X17055357Y-15651357D01*
X17055357Y-15537071D01*
X17069643Y-15508500D01*
X17098214Y-15494214D01*
X17155357Y-15494214D01*
X17183928Y-15508500D01*
X17198214Y-15537071D01*
X17198214Y-15565643D01*
X17055357Y-15594214D01*
X17312500Y-15679929D02*
X17341071Y-15694214D01*
X17398214Y-15694214D01*
X17426786Y-15679929D01*
X17441071Y-15651357D01*
X17441071Y-15637071D01*
X17426786Y-15608500D01*
X17398214Y-15594214D01*
X17355357Y-15594214D01*
X17326786Y-15579929D01*
X17312500Y-15551357D01*
X17312500Y-15537071D01*
X17326786Y-15508500D01*
X17355357Y-15494214D01*
X17398214Y-15494214D01*
X17426786Y-15508500D01*
X17541071Y-15808500D02*
X17555357Y-15794214D01*
X17583928Y-15751357D01*
X17598214Y-15722786D01*
X17612500Y-15679929D01*
X17626786Y-15608500D01*
X17626786Y-15551357D01*
X17612500Y-15479929D01*
X17598214Y-15437071D01*
X17583928Y-15408500D01*
X17555357Y-15365643D01*
X17541071Y-15351357D01*
X10147500Y-15904500D02*
X10147500Y-16004500D01*
X10097500Y-15954500D02*
X10197500Y-15954500D01*
X10641071Y-16090214D02*
X10469643Y-16090214D01*
X10555357Y-16090214D02*
X10555357Y-15790214D01*
X10526786Y-15833071D01*
X10498214Y-15861643D01*
X10469643Y-15875929D01*
X10769643Y-16061643D02*
X10783928Y-16075929D01*
X10769643Y-16090214D01*
X10755357Y-16075929D01*
X10769643Y-16061643D01*
X10769643Y-16090214D01*
X10969643Y-15790214D02*
X10998214Y-15790214D01*
X11026786Y-15804500D01*
X11041071Y-15818786D01*
X11055357Y-15847357D01*
X11069643Y-15904500D01*
X11069643Y-15975929D01*
X11055357Y-16033071D01*
X11041071Y-16061643D01*
X11026786Y-16075929D01*
X10998214Y-16090214D01*
X10969643Y-16090214D01*
X10941071Y-16075929D01*
X10926786Y-16061643D01*
X10912500Y-16033071D01*
X10898214Y-15975929D01*
X10898214Y-15904500D01*
X10912500Y-15847357D01*
X10926786Y-15818786D01*
X10941071Y-15804500D01*
X10969643Y-15790214D01*
X11255357Y-15790214D02*
X11283928Y-15790214D01*
X11312500Y-15804500D01*
X11326786Y-15818786D01*
X11341071Y-15847357D01*
X11355357Y-15904500D01*
X11355357Y-15975929D01*
X11341071Y-16033071D01*
X11326786Y-16061643D01*
X11312500Y-16075929D01*
X11283928Y-16090214D01*
X11255357Y-16090214D01*
X11226786Y-16075929D01*
X11212500Y-16061643D01*
X11198214Y-16033071D01*
X11183928Y-15975929D01*
X11183928Y-15904500D01*
X11198214Y-15847357D01*
X11212500Y-15818786D01*
X11226786Y-15804500D01*
X11255357Y-15790214D01*
X11541071Y-15790214D02*
X11569643Y-15790214D01*
X11598214Y-15804500D01*
X11612500Y-15818786D01*
X11626786Y-15847357D01*
X11641071Y-15904500D01*
X11641071Y-15975929D01*
X11626786Y-16033071D01*
X11612500Y-16061643D01*
X11598214Y-16075929D01*
X11569643Y-16090214D01*
X11541071Y-16090214D01*
X11512500Y-16075929D01*
X11498214Y-16061643D01*
X11483928Y-16033071D01*
X11469643Y-15975929D01*
X11469643Y-15904500D01*
X11483928Y-15847357D01*
X11498214Y-15818786D01*
X11512500Y-15804500D01*
X11541071Y-15790214D01*
X11769643Y-16090214D02*
X11769643Y-15890214D01*
X11769643Y-15918786D02*
X11783928Y-15904500D01*
X11812500Y-15890214D01*
X11855357Y-15890214D01*
X11883928Y-15904500D01*
X11898214Y-15933071D01*
X11898214Y-16090214D01*
X11898214Y-15933071D02*
X11912500Y-15904500D01*
X11941071Y-15890214D01*
X11983928Y-15890214D01*
X12012500Y-15904500D01*
X12026786Y-15933071D01*
X12026786Y-16090214D01*
X12169643Y-16090214D02*
X12169643Y-15890214D01*
X12169643Y-15918786D02*
X12183928Y-15904500D01*
X12212500Y-15890214D01*
X12255357Y-15890214D01*
X12283928Y-15904500D01*
X12298214Y-15933071D01*
X12298214Y-16090214D01*
X12298214Y-15933071D02*
X12312500Y-15904500D01*
X12341071Y-15890214D01*
X12383928Y-15890214D01*
X12412500Y-15904500D01*
X12426786Y-15933071D01*
X12426786Y-16090214D01*
X13012500Y-15775929D02*
X12755357Y-16161643D01*
X13398214Y-15790214D02*
X13426786Y-15790214D01*
X13455357Y-15804500D01*
X13469643Y-15818786D01*
X13483928Y-15847357D01*
X13498214Y-15904500D01*
X13498214Y-15975929D01*
X13483928Y-16033071D01*
X13469643Y-16061643D01*
X13455357Y-16075929D01*
X13426786Y-16090214D01*
X13398214Y-16090214D01*
X13369643Y-16075929D01*
X13355357Y-16061643D01*
X13341071Y-16033071D01*
X13326786Y-15975929D01*
X13326786Y-15904500D01*
X13341071Y-15847357D01*
X13355357Y-15818786D01*
X13369643Y-15804500D01*
X13398214Y-15790214D01*
X13626786Y-16061643D02*
X13641071Y-16075929D01*
X13626786Y-16090214D01*
X13612500Y-16075929D01*
X13626786Y-16061643D01*
X13626786Y-16090214D01*
X13826786Y-15790214D02*
X13855357Y-15790214D01*
X13883928Y-15804500D01*
X13898214Y-15818786D01*
X13912500Y-15847357D01*
X13926786Y-15904500D01*
X13926786Y-15975929D01*
X13912500Y-16033071D01*
X13898214Y-16061643D01*
X13883928Y-16075929D01*
X13855357Y-16090214D01*
X13826786Y-16090214D01*
X13798214Y-16075929D01*
X13783928Y-16061643D01*
X13769643Y-16033071D01*
X13755357Y-15975929D01*
X13755357Y-15904500D01*
X13769643Y-15847357D01*
X13783928Y-15818786D01*
X13798214Y-15804500D01*
X13826786Y-15790214D01*
X14026786Y-15790214D02*
X14212500Y-15790214D01*
X14112500Y-15904500D01*
X14155357Y-15904500D01*
X14183928Y-15918786D01*
X14198214Y-15933071D01*
X14212500Y-15961643D01*
X14212500Y-16033071D01*
X14198214Y-16061643D01*
X14183928Y-16075929D01*
X14155357Y-16090214D01*
X14069643Y-16090214D01*
X14041071Y-16075929D01*
X14026786Y-16061643D01*
X14355357Y-16090214D02*
X14412500Y-16090214D01*
X14441071Y-16075929D01*
X14455357Y-16061643D01*
X14483928Y-16018786D01*
X14498214Y-15961643D01*
X14498214Y-15847357D01*
X14483928Y-15818786D01*
X14469643Y-15804500D01*
X14441071Y-15790214D01*
X14383928Y-15790214D01*
X14355357Y-15804500D01*
X14341071Y-15818786D01*
X14326786Y-15847357D01*
X14326786Y-15918786D01*
X14341071Y-15947357D01*
X14355357Y-15961643D01*
X14383928Y-15975929D01*
X14441071Y-15975929D01*
X14469643Y-15961643D01*
X14483928Y-15947357D01*
X14498214Y-15918786D01*
X14755357Y-15890214D02*
X14755357Y-16090214D01*
X14683928Y-15775929D02*
X14612500Y-15990214D01*
X14798214Y-15990214D01*
X14898214Y-15790214D02*
X14898214Y-15847357D01*
X15012500Y-15790214D02*
X15012500Y-15847357D01*
X15455357Y-16204500D02*
X15441071Y-16190214D01*
X15412500Y-16147357D01*
X15398214Y-16118786D01*
X15383928Y-16075929D01*
X15369643Y-16004500D01*
X15369643Y-15947357D01*
X15383928Y-15875929D01*
X15398214Y-15833071D01*
X15412500Y-15804500D01*
X15441071Y-15761643D01*
X15455357Y-15747357D01*
X15698214Y-15890214D02*
X15698214Y-16090214D01*
X15626786Y-15775929D02*
X15555357Y-15990214D01*
X15741071Y-15990214D01*
X15869643Y-16090214D02*
X15926786Y-16090214D01*
X15955357Y-16075929D01*
X15969643Y-16061643D01*
X15998214Y-16018786D01*
X16012500Y-15961643D01*
X16012500Y-15847357D01*
X15998214Y-15818786D01*
X15983928Y-15804500D01*
X15955357Y-15790214D01*
X15898214Y-15790214D01*
X15869643Y-15804500D01*
X15855357Y-15818786D01*
X15841071Y-15847357D01*
X15841071Y-15918786D01*
X15855357Y-15947357D01*
X15869643Y-15961643D01*
X15898214Y-15975929D01*
X15955357Y-15975929D01*
X15983928Y-15961643D01*
X15998214Y-15947357D01*
X16012500Y-15918786D01*
X16369643Y-16090214D02*
X16369643Y-15790214D01*
X16498214Y-16090214D02*
X16498214Y-15933071D01*
X16483928Y-15904500D01*
X16455357Y-15890214D01*
X16412500Y-15890214D01*
X16383928Y-15904500D01*
X16369643Y-15918786D01*
X16683928Y-16090214D02*
X16655357Y-16075929D01*
X16641071Y-16061643D01*
X16626786Y-16033071D01*
X16626786Y-15947357D01*
X16641071Y-15918786D01*
X16655357Y-15904500D01*
X16683928Y-15890214D01*
X16726786Y-15890214D01*
X16755357Y-15904500D01*
X16769643Y-15918786D01*
X16783928Y-15947357D01*
X16783928Y-16033071D01*
X16769643Y-16061643D01*
X16755357Y-16075929D01*
X16726786Y-16090214D01*
X16683928Y-16090214D01*
X16955357Y-16090214D02*
X16926786Y-16075929D01*
X16912500Y-16047357D01*
X16912500Y-15790214D01*
X17183928Y-16075929D02*
X17155357Y-16090214D01*
X17098214Y-16090214D01*
X17069643Y-16075929D01*
X17055357Y-16047357D01*
X17055357Y-15933071D01*
X17069643Y-15904500D01*
X17098214Y-15890214D01*
X17155357Y-15890214D01*
X17183928Y-15904500D01*
X17198214Y-15933071D01*
X17198214Y-15961643D01*
X17055357Y-15990214D01*
X17312500Y-16075929D02*
X17341071Y-16090214D01*
X17398214Y-16090214D01*
X17426786Y-16075929D01*
X17441071Y-16047357D01*
X17441071Y-16033071D01*
X17426786Y-16004500D01*
X17398214Y-15990214D01*
X17355357Y-15990214D01*
X17326786Y-15975929D01*
X17312500Y-15947357D01*
X17312500Y-15933071D01*
X17326786Y-15904500D01*
X17355357Y-15890214D01*
X17398214Y-15890214D01*
X17426786Y-15904500D01*
X17541071Y-16204500D02*
X17555357Y-16190214D01*
X17583928Y-16147357D01*
X17598214Y-16118786D01*
X17612500Y-16075929D01*
X17626786Y-16004500D01*
X17626786Y-15947357D01*
X17612500Y-15875929D01*
X17598214Y-15833071D01*
X17583928Y-15804500D01*
X17555357Y-15761643D01*
X17541071Y-15747357D01*
M02*
