M48
; DRILL file {KiCad (5.1.10)-1} date 02/10/22 20:55:25
; FORMAT={-:-/ absolute / metric / decimal}
; #@! TF.CreationDate,2022-02-10T20:55:25-03:00
; #@! TF.GenerationSoftware,Kicad,Pcbnew,(5.1.10)-1
; #@! TF.FileFunction,Plated,1,2,PTH
FMAT,2
METRIC
T1C0.400
T2C0.650
T3C1.000
%
G90
G05
T1
X127.38Y-85.38
X140.0Y-84.0
T2
X121.03Y-79.0
X122.3Y-79.0
X123.57Y-79.0
X124.84Y-79.0
X126.11Y-79.0
X127.38Y-79.0
X128.65Y-79.0
X129.92Y-79.0
X131.19Y-79.0
X132.46Y-79.0
X133.73Y-79.0
X135.0Y-79.0
T3
X119.053Y-94.75
X119.053Y-97.29
X119.053Y-99.83
X119.053Y-102.37
X119.053Y-104.91
X119.053Y-107.45
X119.053Y-109.99
X119.053Y-112.53
X119.053Y-115.07
X119.053Y-117.61
X119.053Y-120.15
X119.053Y-122.69
X119.053Y-125.23
X119.053Y-127.77
X119.053Y-130.31
X144.458Y-94.75
X144.458Y-97.29
X144.458Y-99.83
X144.458Y-102.37
X144.458Y-104.91
X144.458Y-107.45
X144.458Y-109.99
X144.458Y-112.53
X144.458Y-115.07
X144.458Y-117.61
X144.458Y-120.15
X144.458Y-122.69
X144.458Y-125.23
X144.458Y-127.77
X144.458Y-130.31
X156.463Y-78.691
X156.463Y-81.231
X156.463Y-83.771
X156.463Y-86.311
X156.463Y-88.851
X156.463Y-96.151
X156.463Y-98.691
X156.463Y-101.231
X156.463Y-103.771
X156.463Y-106.311
X156.463Y-108.851
X156.463Y-115.231
X156.463Y-117.771
X156.463Y-120.311
X156.463Y-122.851
X156.463Y-128.851
X156.463Y-131.391
X156.463Y-133.931
X156.463Y-136.471
T0
M30
